<svg viewBox="0 0 100 100" version="1.1" xmlns="http://www.w3.org/2000/svg" xmlns:xlink="http://www.w3.org/1999/xlink">
    <title id="title">Clock</title>
    <g class="svg-icon" id="clock" fill-rule="nonzero" fill="#FFFFFF">
        <path d="M50,99 C22.9380473,99 1,77.0619527 1,50 C1,22.9380473 22.9380473,1 50,1 C77.0619527,1 99,22.9380473 99,50 C99,77.0619527 77.0619527,99 50,99 Z M50,89 C71.5391052,89 89,71.5391052 89,50 C89,28.4608948 71.5391052,11 50,11 C28.4608948,11 11,28.4608948 11,50 C11,71.5391052 28.4608948,89 50,89 Z M55,19 L55,47.2287618 L72.8899862,58.4100032 L67.5899968,66.8899862 L45,52.7712382 L45,19 L55,19 Z"></path>
    </g>
</svg>
