<svg viewBox="0 0 100 100" version="1.1" xmlns="http://www.w3.org/2000/svg" xmlns:xlink="http://www.w3.org/1999/xlink">
    <title id="title">Connect</title>
    <g class="svg-icon" id="connect-wave" fill-rule="nonzero" fill="#FFFFFF">
        <path d="M42.1816728,17.4077654 L47.7644284,7.73814897 C50.387781,3.19436905 56.1978898,1.63755508 60.7416698,4.26090764 C61.8120805,4.87890955 62.7167248,5.67376559 63.440003,6.58725731 L64.5227587,4.71186953 C67.1461112,0.168089609 72.9562201,-1.38872437 77.5,1.2346282 C82.0437799,3.85798076 83.6005939,9.66808961 80.9772413,14.2118695 L80.8944857,14.3552065 C82.0472319,14.524838 83.1879195,14.9108549 84.2583302,15.5288568 C88.8021102,18.1522094 90.3589241,23.9623182 87.7355716,28.5060982 L84.1528159,34.711613 C85.3055621,34.8812445 86.4462498,35.2672614 87.5166605,35.8852633 C92.0604404,38.5086159 93.6172544,44.3187247 90.9939018,48.8625046 L72.2439018,81.3384573 C62.4408475,98.3178454 40.7293881,104.135413 23.75,94.3323591 C6.77061187,84.5293048 0.953043857,62.8178454 10.7560982,45.8384573 L26.5060982,18.558657 C29.1294507,14.0148771 34.9395596,12.4580632 39.4833395,15.0814157 C40.5537502,15.6994176 41.4583945,16.4942737 42.1816728,17.4077654 L42.1816728,17.4077654 Z M52.9605808,10.738149 L34.5758023,42.5815196 C41.0315261,48.0440984 43.0207296,57.9544764 38.7009619,65.4365335 C37.8725348,66.8714113 36.0377636,67.3630368 34.6028857,66.5346097 C33.1680078,65.7061826 32.6763823,63.8714113 33.5048095,62.4365335 C36.6763823,56.9432081 34.60583,49.2158015 29.1125046,46.0442286 L26.5144284,44.5442286 L37.7644284,25.058657 C38.7309267,23.3846329 38.1573637,21.2440664 36.4833395,20.2775681 C34.8093153,19.3110698 32.6687489,19.8846329 31.7022506,21.558657 L15.9522506,48.8384573 C7.80605053,62.9480897 12.6403676,80.9900066 26.75,89.1362067 C40.8596324,97.2824067 58.9015494,92.4480897 67.0477494,78.3384573 L85.7977494,45.8625046 C86.7642477,44.1884804 86.1906847,42.047914 84.5166605,41.0814157 C82.8426363,40.1149174 80.7020699,40.6884804 79.7355716,42.3625046 L65.9855716,66.1782032 C65.1571445,67.6130811 63.3223732,68.1047066 61.8874954,67.2762794 C60.4526175,66.4478523 59.960992,64.6130811 60.7894192,63.1782032 L82.5394192,25.5060982 C83.5059175,23.832074 82.9323544,21.6915076 81.2583302,20.7250093 C79.5843061,19.7585109 77.4437396,20.332074 76.4772413,22.0060982 L60.2272413,50.1519238 C59.3988142,51.5868017 57.564043,52.0784271 56.1291651,51.25 C54.6942873,50.4215729 54.2026618,48.5868017 55.0310889,47.1519238 L75.7810889,11.2118695 C76.7475872,9.53784535 76.1740242,7.39727893 74.5,6.43078062 C72.8259758,5.46428231 70.6854094,6.03784535 69.7189111,7.71186953 L47.9689111,45.3839746 C47.140484,46.8188525 45.3057127,47.3104779 43.8708349,46.4820508 C42.435957,45.6536237 41.9443315,43.8188525 42.7727587,42.3839746 L59.0227587,14.238149 C59.989257,12.5641248 59.4156939,10.4235584 57.7416698,9.45706006 C56.0676456,8.49056175 53.9270791,9.06412479 52.9605808,10.738149 Z"></path>
    </g>
</svg>
