<svg viewBox="0 0 100 100" version="1.1" xmlns="http://www.w3.org/2000/svg" xmlns:xlink="http://www.w3.org/1999/xlink">
    <title id="title">Connect</title>
    <g class="svg-icon" id="connect-wave" fill-rule="nonzero" fill="#FFFFFF">
        <path d="M69.5142863,37.3604522 C70.5296593,35.7180697 71.0211282,33.6015762 71.1606763,30.8048554 C71.2173624,29.6687957 71.2192912,28.7096599 71.1894292,26.6598625 C71.1432508,23.4900734 71.1704136,22.2180864 71.4114668,20.6539083 C72.1958247,15.5642629 75.951427,12.0888672 81.2075195,12.0888672 C87.005488,12.0888672 90.3252812,17.8333701 89.7178166,24.1845597 C89.1362307,30.265181 89.3159524,35.0796773 90.1969906,40.4358712 C90.5087838,42.3313904 90.9023406,44.292624 91.486439,46.9330675 C91.6407034,47.6304269 92.797588,52.7412557 93.1617526,54.4071978 C94.7925071,61.8674026 95.1039606,67.7266048 93.6855685,73.4038852 C91.9375499,80.4005341 87.5612118,86.4615232 80.0905791,91.6925166 C64.0301952,102.938118 41.89432,99.0349664 30.6487181,82.9745825 L9.1396017,52.2563808 C6.13021527,47.9585316 7.17472075,42.0348467 11.47257,39.0254602 C12.485045,38.3165176 13.5877484,37.8325521 14.7213237,37.5630976 L10.6113553,31.6934544 C7.60196886,27.3956052 8.64647434,21.4719203 12.9443236,18.4625339 C13.9567986,17.7535912 15.059502,17.2696257 16.1930773,17.0001713 L16.0981439,16.8645924 C13.0887575,12.5667431 14.133263,6.64305822 18.4311122,3.63367179 C22.7289614,0.624285363 28.6526464,1.66879084 31.6620328,5.96664007 L32.904119,7.74052305 C33.545029,6.76746959 34.3769545,5.89679328 35.3894296,5.1878506 C39.6872788,2.17846418 45.6109637,3.22296965 48.6203502,7.52081888 L69.5142863,37.3604522 L69.5142863,37.3604522 Z M65.0849226,41.4953459 L43.7054379,10.9622775 C42.5967166,9.37885936 40.4143063,8.99404156 38.8308882,10.1027629 C37.2474701,11.2114842 36.8626523,13.3938944 37.9713736,14.9773126 L56.6126078,41.599754 C57.5629403,42.9569695 57.2330965,44.8276069 55.8758809,45.7779394 C54.5186654,46.728272 52.6480281,46.3984282 51.6976955,45.0412126 L26.7471205,9.40809868 C25.6383992,7.82468055 23.455989,7.43986274 21.8725708,8.54858406 C20.2891527,9.65730537 19.9043349,11.8397156 21.0130562,13.4231337 L44.8164783,47.4179436 C45.7668109,48.7751591 45.436967,50.6457965 44.0797515,51.596129 C42.7225359,52.5464616 40.8518986,52.2166177 39.901566,50.8594022 L21.2603319,24.2369608 C20.1516106,22.6535426 17.9692003,22.2687248 16.3857822,23.3774461 C14.802364,24.4861674 14.4175462,26.6685777 15.5262676,28.2519958 L40.4768425,63.8851097 C41.4271751,65.2423253 41.0973313,67.1129626 39.7401157,68.0632952 C38.3829002,69.0136277 36.5122628,68.6837839 35.5619303,67.3265684 L19.7885783,44.7998871 C18.679857,43.216469 16.4974467,42.8316512 14.9140286,43.9403725 C13.3306105,45.0490938 12.9457926,47.2315041 14.054514,48.8149222 L35.5636303,79.5331239 C44.9085671,92.8790767 63.3031676,96.1225411 76.6491205,86.7776043 C88.2042887,78.6865884 90.4033432,69.8846157 87.3001614,55.6885053 C86.9418741,54.04945 85.7872426,48.9485748 85.6280663,48.2290111 C85.0223697,45.4909317 84.6091297,43.4316099 84.2765502,41.4097221 C83.3126251,35.5496243 83.1135325,30.2162112 83.7450741,23.6132919 C84.0573324,20.3485549 82.7514412,18.0888672 81.2075195,18.0888672 C79.0127535,18.0888672 77.6887792,19.3140593 77.3414629,21.5677714 C77.1713898,22.6713643 77.1479507,23.7689805 77.1887926,26.5724621 C77.2205054,28.7493008 77.2183971,29.7976562 77.1532211,31.1038657 C76.8522032,37.1366442 75.103335,41.5313391 70.7316227,44.6214307 C64.9573549,48.7029016 63.8076247,55.3621967 67.5929853,60.7682518 C68.5433178,62.1254674 68.213474,63.9961047 66.8562585,64.9464373 C65.4990429,65.8967698 63.6284056,65.566926 62.678073,64.2097105 C57.5263051,56.8522234 58.5253983,47.6180978 65.0849226,41.4953459 Z"></path>
    </g>
</svg>
