<svg viewBox="0 0 100 100" version="1.1" xmlns="http://www.w3.org/2000/svg" xmlns:xlink="http://www.w3.org/1999/xlink">
    <title id="title">English</title>
    <g class="svg-icon" id="eng" fill="#FFFFFF">
        <path d="M0,43.1594415 L25.8904454,43.1594415 L28.3395416,36.2786475 L11.3124919,36.2786475 L15.3943189,24.8495319 L31.2551323,24.8495319 L33.6459167,18.2019851 L17.7851033,18.2019851 L21.5170594,7.76417043 L38.1942382,7.76417043 L40.6433344,1 L15.1610716,1 L0,43.1594415 Z M21.9641174,71.1491123 L30.5942658,71.1491123 L40.6822097,41.8182698 L41.1487042,41.8182698 L49.2540463,71.1491123 L57.4760121,71.1491123 L72.6370837,28.9896707 L63.9486235,28.9896707 L53.9773033,58.2038896 L53.5108087,58.2038896 L45.4054666,28.9896707 L37.1835008,28.9896707 L21.9641174,71.1491123 Z M98.9940248,72.1404131 C99.6937666,70.5076823 99.9270138,69.1081988 99.9853256,67.8836507 C100.335197,59.953244 94.3873915,56.2795997 86.5736084,56.2795997 C71.1209777,56.2795997 59.5752385,73.2483376 59.5752385,86.1352485 C59.5752385,94.8237088 65.1731727,99.9551484 74.0365684,99.9551484 C83.5997059,99.9551484 93.8042734,93.8907197 97.9444121,79.7792608 L76.3107291,79.7792608 L73.2785148,86.7183666 L87.8564683,85.0856358 C85.6406194,89.9838282 80.5674916,93.7157843 74.9112456,93.7157843 C70.4212359,93.7157843 67.6222689,91.0917527 67.6222689,86.1352485 C67.6222689,75.8723692 76.0774819,62.8105229 86.2820493,62.8105229 C89.6641346,62.8105229 91.5301126,64.7931245 91.5301126,68.2335216 C91.5301126,69.4580697 91.1802417,70.8575532 90.6554354,72.1404131 L98.9940248,72.1404131 Z"></path>
    </g>
</svg>
