<?xml version="1.0" encoding="UTF-8"?>
<svg width="56px" height="30px" viewBox="0 0 56 30" version="1.1" xmlns="http://www.w3.org/2000/svg" xmlns:xlink="http://www.w3.org/1999/xlink">
    <!-- Generator: Sketch 43.2 (39069) - http://www.bohemiancoding.com/sketch -->
    <title>Group</title>
    <desc>Created with Sketch.</desc>
    <defs>
        <polygon id="path-1" points="0.00544225306 0.0180909091 28.5225762 0.0180909091 28.5225762 12.9945455 0.00544225306 12.9945455"></polygon>
    </defs>
    <g id="Resources" stroke="none" stroke-width="1" fill="none" fill-rule="evenodd">
        <g id="Artboard-2" transform="translate(-10.000000, -10.000000)">
            <g id="Group" transform="translate(10.000000, 10.000000)">
                <g id="M+-Black-Logo">
                    <mask id="mask-2" fill="white">
                        <use xlink:href="#path-1"></use>
                    </mask>
                    <g id="Clip-2"></g>
                    <path d="M24.4590272,7.28409091 L21.6471965,8.91118182 L21.6471965,10.9820909 L24.4590272,10.9820909 L24.4590272,7.28409091 L24.4590272,7.28409091 Z M11.597532,13 L14.5906805,13 L14.5906805,0.0180909091 L10.1010938,0.0181818182 L7.29534023,8.12572727 L4.48958666,0.0181818182 L0,0.0180909091 L0,13 L2.99323918,13 L2.99323918,4.09145455 L5.98584344,12.9991818 L5.98566203,13 L8.60510913,13 L8.60483702,12.9991818 L11.597532,4.09145455 L11.597532,13 L11.597532,13 Z M28.5225762,6.90918182 L28.5225762,4.091 L24.4590272,4.091 L24.4590272,0.0180909091 L21.6471965,0.0180909091 L21.6471965,4.091 L17.5836475,4.091 L17.5836475,6.90918182 L28.5225762,6.90918182 L28.5225762,6.90918182 Z" id="Fill-1" fill="#FFFFFF" mask="url(#mask-2)"></path>
                </g>
                <path d="M0,29.1624161 C1.15167785,29.7208054 2.39060403,30 3.71677852,30 C6.66577181,30 8.51543624,28.5516779 8.51543624,26.2134228 C8.51543624,25.2362416 8.18389262,24.3812081 7.5557047,23.7530201 C7.0147651,23.2120805 6.42147651,22.8281879 5.16510067,22.252349 L4.11812081,21.7463087 C3.33288591,21.3798658 2.98389262,21.0134228 2.98389262,20.5248322 C2.98389262,19.7919463 3.71677852,19.3731544 4.99060403,19.3731544 C6.19463087,19.3731544 7.13691275,19.6872483 8.21879195,20.4550336 L8.21879195,17.7852349 C7.18926174,17.261745 6.03758389,17 4.78120805,17 C1.90201342,17 0.104697987,18.4308725 0.104697987,20.6993289 C0.104697987,21.5369128 0.366442953,22.2872483 0.872483221,22.8281879 C1.37852349,23.3865772 1.91946309,23.7530201 3.36778523,24.4684564 C5.14765101,25.3583893 5.46174497,25.6550336 5.46174497,26.3530201 C5.46174497,27.1033557 4.76375839,27.5395973 3.54228188,27.5395973 C2.28590604,27.5395973 1.36107383,27.2255034 0,26.3006711 L0,29.1624161 Z M9.51006711,23.3167785 L10.8885906,23.3167785 L10.8885906,26.5624161 C10.8885906,28.0107383 10.9758389,28.3946309 11.3597315,28.8832215 C11.8308725,29.4590604 12.6684564,29.7557047 13.8550336,29.7557047 C14.3261745,29.7557047 14.7798658,29.7033557 15.3033557,29.6161074 L15.3033557,27.5919463 C15.0416107,27.661745 14.9020134,27.6966443 14.7275168,27.6966443 C13.8201342,27.6966443 13.5758389,27.3825503 13.5758389,26.2134228 L13.5758389,23.3167785 L15.4604027,23.3167785 L15.4604027,21.3100671 L13.5758389,21.3100671 L13.5758389,18.9194631 L11.0107383,18.9194631 L11.0107383,21.3100671 L9.51006711,21.3100671 L9.51006711,23.3167785 Z M16.4724832,25.4979866 C16.4724832,22.6711409 18.1825503,20.9087248 20.9221477,20.9087248 C23.609396,20.9087248 25.2496644,22.6013423 25.2496644,25.3409396 C25.2496644,28.1503356 23.5395973,29.9127517 20.8174497,29.9127517 C18.1302013,29.9127517 16.4724832,28.2201342 16.4724832,25.4979866 Z M19.2120805,25.4107383 C19.2120805,26.8939597 19.8228188,27.7489933 20.8697987,27.7489933 C21.8993289,27.7489933 22.5100671,26.8939597 22.5100671,25.4107383 C22.5100671,23.9449664 21.9167785,23.0724832 20.8872483,23.0724832 C19.8228188,23.0724832 19.2120805,23.9275168 19.2120805,25.4107383 Z M27.0993289,29.685906 L29.7865772,29.685906 L29.7865772,23.5087248 C30.3449664,23.3167785 30.8684564,23.2295302 31.4791946,23.2295302 C32.0724832,23.2295302 32.5785235,23.3167785 33.0671141,23.5087248 L33.0671141,21.2228188 C32.4563758,21.0308725 31.9328859,20.9436242 31.1825503,20.9436242 C29.8738255,20.9436242 28.4604027,21.2228188 27.0993289,21.7637584 L27.0993289,29.685906 Z M34.4630872,29.685906 L37.1503356,29.685906 L37.1503356,21.1355705 L34.4630872,21.1355705 L34.4630872,29.685906 Z M34.4630872,19.757047 L37.1503356,19.757047 L37.1503356,17 L34.4630872,17 L34.4630872,19.757047 Z M47.2187919,26.1785235 L41.6174497,26.1785235 C41.704698,27.242953 42.5248322,27.8187919 43.938255,27.8187919 C45.0026846,27.8187919 45.9798658,27.5395973 46.8,26.9986577 L46.8,29.0751678 C45.7704698,29.6161074 44.7060403,29.8778523 43.5543624,29.8778523 C40.6926174,29.8778523 39.0174497,28.2375839 39.0174497,25.4456376 C39.0174497,22.6711409 40.7275168,20.8563758 43.3275168,20.8563758 C45.8228188,20.8563758 47.2536913,22.4791946 47.2536913,25.3060403 C47.2536913,25.4456376 47.2536913,25.6899329 47.2362416,25.9865772 L47.2187919,26.1785235 Z M41.652349,24.3114094 L44.7932886,24.3114094 C44.7060403,23.2818792 44.2,22.7409396 43.3275168,22.7409396 C42.4201342,22.7409396 41.7919463,23.3342282 41.652349,24.3114094 Z M48.8939597,29.3543624 C49.7489933,29.7208054 50.5691275,29.8778523 51.5812081,29.8778523 C53.9718121,29.8778523 55.2107383,28.9530201 55.2107383,27.1557047 C55.2107383,25.9865772 54.6872483,25.3583893 53.0120805,24.590604 C52.5583893,24.3812081 52.209396,24.2067114 51.947651,24.0845638 C51.8255034,24.0322148 51.7208054,23.9624161 51.6510067,23.8926174 C51.5637584,23.8053691 51.5114094,23.6832215 51.5114094,23.5610738 C51.5114094,23.1946309 51.9302013,22.9852349 52.6805369,22.9852349 C53.4483221,22.9852349 54.0939597,23.1597315 54.8966443,23.5436242 L54.8966443,21.4147651 C54.0590604,21.0657718 53.3436242,20.9261745 52.4885906,20.9261745 C50.2550336,20.9261745 48.8939597,21.9557047 48.8939597,23.6308725 C48.8939597,24.852349 49.4174497,25.4805369 51.0751678,26.2483221 L52.157047,26.7543624 C52.4536913,26.8765101 52.5932886,27.0510067 52.5932886,27.2778523 C52.5932886,27.6268456 52.209396,27.8187919 51.4939597,27.8187919 C50.6040268,27.8187919 49.8536913,27.609396 48.8939597,27.138255 L48.8939597,29.3543624 Z" id="Stories" fill="#FFFFFF"></path>
            </g>
        </g>
    </g>
</svg>