<?xml version="1.0" encoding="UTF-8"?>
<svg width="200px" height="30px" viewBox="0 0 200 30" version="1.1" xmlns="http://www.w3.org/2000/svg" xmlns:xlink="http://www.w3.org/1999/xlink">
    <!-- Generator: Sketch 43.2 (39069) - http://www.bohemiancoding.com/sketch -->
    <title>Group</title>
    <desc>Created with Sketch.</desc>
    <defs>
        <polygon id="path-1" points="0.0125590455 0.0417482517 65.8213296 0.0417482517 65.8213296 29.9874126 0.0125590455 29.9874126"></polygon>
    </defs>
    <g id="Resources" stroke="none" stroke-width="1" fill="none" fill-rule="evenodd">
        <g id="Artboard-2" transform="translate(-10.000000, -10.000000)">
            <g id="Group" transform="translate(10.000000, 10.000000)">
                <g id="M+-Black-Logo">
                    <mask id="mask-2" fill="white">
                        <use xlink:href="#path-1"></use>
                    </mask>
                    <g id="Clip-2"></g>
                    <path d="M56.443909,16.8094406 L49.9550688,20.5642657 L49.9550688,25.3432867 L56.443909,25.3432867 L56.443909,16.8094406 L56.443909,16.8094406 Z M26.7635353,30 L33.670801,30 L33.670801,0.0417482517 L23.3102164,0.041958042 L16.8354005,18.7516783 L10.3605846,0.041958042 L0,0.0417482517 L0,30 L6.90747504,30 L6.90747504,9.44181818 L13.8134849,29.9981119 L13.8130662,30 L19.8579441,30 L19.8573162,29.9981119 L26.7635353,9.44181818 L26.7635353,30 L26.7635353,30 Z M65.8213296,15.9442657 L65.8213296,9.44076923 L56.443909,9.44076923 L56.443909,0.0417482517 L49.9550688,0.0417482517 L49.9550688,9.44076923 L40.5776481,9.44076923 L40.5776481,15.9442657 L65.8213296,15.9442657 L65.8213296,15.9442657 Z" id="Fill-1" fill="#FFFFFF" mask="url(#mask-2)"></path>
                </g>
                <path d="M72,28.0671141 C74.6577181,29.3557047 77.5167785,30 80.5771812,30 C87.3825503,30 91.6510067,26.6577181 91.6510067,21.261745 C91.6510067,19.0067114 90.885906,17.033557 89.4362416,15.5838926 C88.1879195,14.3355705 86.8187919,13.4496644 83.9194631,12.1208054 L81.5033557,10.9530201 C79.6912752,10.1073826 78.885906,9.26174497 78.885906,8.13422819 C78.885906,6.44295302 80.5771812,5.47651007 83.5167785,5.47651007 C86.295302,5.47651007 88.4697987,6.20134228 90.966443,7.97315436 L90.966443,1.81208054 C88.590604,0.604026846 85.9328859,0 83.033557,0 C76.3892617,0 72.2416107,3.30201342 72.2416107,8.53691275 C72.2416107,10.4697987 72.8456376,12.2013423 74.0134228,13.4496644 C75.1812081,14.738255 76.4295302,15.5838926 79.7718121,17.2348993 C83.8791946,19.2885906 84.6040268,19.9731544 84.6040268,21.5838926 C84.6040268,23.3154362 82.9932886,24.3221477 80.1744966,24.3221477 C77.2751678,24.3221477 75.1409396,23.5973154 72,21.4630872 L72,28.0671141 Z M93.9463087,14.5771812 L97.1275168,14.5771812 L97.1275168,22.0671141 C97.1275168,25.409396 97.3288591,26.295302 98.2147651,27.4228188 C99.3020134,28.7516779 101.234899,29.4362416 103.973154,29.4362416 C105.060403,29.4362416 106.107383,29.3154362 107.315436,29.114094 L107.315436,24.442953 C106.711409,24.6040268 106.389262,24.6845638 105.986577,24.6845638 C103.892617,24.6845638 103.328859,23.9597315 103.328859,21.261745 L103.328859,14.5771812 L107.677852,14.5771812 L107.677852,9.94630872 L103.328859,9.94630872 L103.328859,4.4295302 L97.409396,4.4295302 L97.409396,9.94630872 L93.9463087,9.94630872 L93.9463087,14.5771812 Z M110.013423,19.6107383 C110.013423,13.0872483 113.959732,9.02013423 120.281879,9.02013423 C126.483221,9.02013423 130.268456,12.9261745 130.268456,19.2483221 C130.268456,25.7315436 126.322148,29.7986577 120.040268,29.7986577 C113.838926,29.7986577 110.013423,25.8926174 110.013423,19.6107383 Z M116.33557,19.409396 C116.33557,22.8322148 117.744966,24.8053691 120.161074,24.8053691 C122.536913,24.8053691 123.946309,22.8322148 123.946309,19.409396 C123.946309,16.0268456 122.577181,14.0134228 120.201342,14.0134228 C117.744966,14.0134228 116.33557,15.9865772 116.33557,19.409396 Z M134.536913,29.2751678 L140.738255,29.2751678 L140.738255,15.0201342 C142.026846,14.5771812 143.234899,14.3758389 144.644295,14.3758389 C146.013423,14.3758389 147.181208,14.5771812 148.308725,15.0201342 L148.308725,9.74496644 C146.899329,9.30201342 145.691275,9.10067114 143.959732,9.10067114 C140.939597,9.10067114 137.677852,9.74496644 134.536913,10.9932886 L134.536913,29.2751678 Z M151.530201,29.2751678 L157.731544,29.2751678 L157.731544,9.54362416 L151.530201,9.54362416 L151.530201,29.2751678 Z M151.530201,6.36241611 L157.731544,6.36241611 L157.731544,0 L151.530201,0 L151.530201,6.36241611 Z M180.966443,21.1812081 L168.040268,21.1812081 C168.241611,23.6375839 170.134228,24.966443 173.395973,24.966443 C175.852349,24.966443 178.107383,24.3221477 180,23.0738255 L180,27.8657718 C177.624161,29.114094 175.167785,29.7181208 172.510067,29.7181208 C165.90604,29.7181208 162.040268,25.9328859 162.040268,19.4899329 C162.040268,13.0872483 165.986577,8.89932886 171.986577,8.89932886 C177.744966,8.89932886 181.04698,12.6442953 181.04698,19.1677852 C181.04698,19.4899329 181.04698,20.0536913 181.006711,20.738255 L180.966443,21.1812081 Z M168.120805,16.8724832 L175.369128,16.8724832 C175.167785,14.4966443 174,13.2483221 171.986577,13.2483221 C169.892617,13.2483221 168.442953,14.6174497 168.120805,16.8724832 Z M184.832215,28.5100671 C186.805369,29.3557047 188.697987,29.7181208 191.033557,29.7181208 C196.550336,29.7181208 199.409396,27.5838926 199.409396,23.4362416 C199.409396,20.738255 198.201342,19.2885906 194.33557,17.5167785 C193.288591,17.033557 192.483221,16.6308725 191.879195,16.3489933 C191.597315,16.2281879 191.355705,16.0671141 191.194631,15.9060403 C190.993289,15.704698 190.872483,15.4228188 190.872483,15.1409396 C190.872483,14.295302 191.838926,13.8120805 193.57047,13.8120805 C195.342282,13.8120805 196.832215,14.2147651 198.684564,15.1006711 L198.684564,10.1879195 C196.751678,9.38255034 195.100671,9.06040268 193.127517,9.06040268 C187.973154,9.06040268 184.832215,11.4362416 184.832215,15.3020134 C184.832215,18.1208054 186.040268,19.5704698 189.865772,21.3422819 L192.362416,22.5100671 C193.04698,22.7919463 193.369128,23.1946309 193.369128,23.7181208 C193.369128,24.5234899 192.483221,24.966443 190.832215,24.966443 C188.778523,24.966443 187.04698,24.4832215 184.832215,23.3959732 L184.832215,28.5100671 Z" id="Stories" fill="#FFFFFF"></path>
            </g>
        </g>
    </g>
</svg>