<?xml version="1.0" encoding="UTF-8"?>
<svg width="140px" height="30px" viewBox="0 0 140 30" version="1.1" xmlns="http://www.w3.org/2000/svg" xmlns:xlink="http://www.w3.org/1999/xlink">
    <!-- Generator: Sketch 43.2 (39069) - http://www.bohemiancoding.com/sketch -->
    <title>Group</title>
    <desc>Created with Sketch.</desc>
    <defs>
        <polygon id="path-1" points="0.0125590455 0.0417482517 65.8213296 0.0417482517 65.8213296 29.9874126 0.0125590455 29.9874126"></polygon>
    </defs>
    <g id="Resources" stroke="none" stroke-width="1" fill="none" fill-rule="evenodd">
        <g id="Artboard-2" transform="translate(-10.000000, -10.000000)">
            <g id="Group" transform="translate(10.000000, 10.000000)">
                <g id="M+-Black-Logo">
                    <mask id="mask-2" fill="white">
                        <use xlink:href="#path-1"></use>
                    </mask>
                    <g id="Clip-2"></g>
                    <path d="M56.443909,16.8094406 L49.9550688,20.5642657 L49.9550688,25.3432867 L56.443909,25.3432867 L56.443909,16.8094406 L56.443909,16.8094406 Z M26.7635353,30 L33.670801,30 L33.670801,0.0417482517 L23.3102164,0.041958042 L16.8354005,18.7516783 L10.3605846,0.041958042 L0,0.0417482517 L0,30 L6.90747504,30 L6.90747504,9.44181818 L13.8134849,29.9981119 L13.8130662,30 L19.8579441,30 L19.8573162,29.9981119 L26.7635353,9.44181818 L26.7635353,30 L26.7635353,30 Z M65.8213296,15.9442657 L65.8213296,9.44076923 L56.443909,9.44076923 L56.443909,0.0417482517 L49.9550688,0.0417482517 L49.9550688,9.44076923 L40.5776481,9.44076923 L40.5776481,15.9442657 L65.8213296,15.9442657 L65.8213296,15.9442657 Z" id="Fill-1" fill="#FFFFFF" mask="url(#mask-2)"></path>
                </g>
                <path d="M72,14.9691275 C73.4174497,15.6563758 74.9422819,16 76.5744966,16 C80.2040268,16 82.4805369,14.2174497 82.4805369,11.3395973 C82.4805369,10.1369128 82.0724832,9.08456376 81.2993289,8.3114094 C80.633557,7.64563758 79.9033557,7.17315436 78.357047,6.46442953 L77.0684564,5.84161074 C76.1020134,5.39060403 75.6724832,4.93959732 75.6724832,4.33825503 C75.6724832,3.43624161 76.5744966,2.92080537 78.1422819,2.92080537 C79.6241611,2.92080537 80.7838926,3.30738255 82.1154362,4.25234899 L82.1154362,0.966442953 C80.8483221,0.322147651 79.4308725,0 77.8845638,0 C74.3409396,0 72.1288591,1.76107383 72.1288591,4.55302013 C72.1288591,5.58389262 72.4510067,6.50738255 73.0738255,7.17315436 C73.6966443,7.86040268 74.3624161,8.3114094 76.1449664,9.19194631 C78.3355705,10.2872483 78.7221477,10.652349 78.7221477,11.5114094 C78.7221477,12.4348993 77.8630872,12.9718121 76.3597315,12.9718121 C74.8134228,12.9718121 73.6751678,12.5852349 72,11.4469799 L72,14.9691275 Z M83.704698,7.77449664 L85.4013423,7.77449664 L85.4013423,11.7691275 C85.4013423,13.5516779 85.5087248,14.0241611 85.9812081,14.6255034 C86.5610738,15.3342282 87.5919463,15.6993289 89.052349,15.6993289 C89.6322148,15.6993289 90.190604,15.6348993 90.8348993,15.5275168 L90.8348993,13.0362416 C90.5127517,13.1221477 90.3409396,13.1651007 90.1261745,13.1651007 C89.009396,13.1651007 88.7087248,12.7785235 88.7087248,11.3395973 L88.7087248,7.77449664 L91.0281879,7.77449664 L91.0281879,5.30469799 L88.7087248,5.30469799 L88.7087248,2.36241611 L85.5516779,2.36241611 L85.5516779,5.30469799 L83.704698,5.30469799 L83.704698,7.77449664 Z M92.2738255,10.4590604 C92.2738255,6.97986577 94.3785235,4.81073826 97.7503356,4.81073826 C101.057718,4.81073826 103.07651,6.89395973 103.07651,10.2657718 C103.07651,13.7234899 100.971812,15.8926174 97.6214765,15.8926174 C94.314094,15.8926174 92.2738255,13.809396 92.2738255,10.4590604 Z M95.6456376,10.3516779 C95.6456376,12.1771812 96.3973154,13.2295302 97.685906,13.2295302 C98.9530201,13.2295302 99.704698,12.1771812 99.704698,10.3516779 C99.704698,8.54765101 98.9744966,7.4738255 97.7073826,7.4738255 C96.3973154,7.4738255 95.6456376,8.5261745 95.6456376,10.3516779 Z M105.35302,15.6134228 L108.660403,15.6134228 L108.660403,8.01073826 C109.347651,7.77449664 109.991946,7.66711409 110.743624,7.66711409 C111.473826,7.66711409 112.096644,7.77449664 112.697987,8.01073826 L112.697987,5.19731544 C111.946309,4.96107383 111.302013,4.85369128 110.378523,4.85369128 C108.767785,4.85369128 107.028188,5.19731544 105.35302,5.86308725 L105.35302,15.6134228 Z M114.416107,15.6134228 L117.72349,15.6134228 L117.72349,5.08993289 L114.416107,5.08993289 L114.416107,15.6134228 Z M114.416107,3.39328859 L117.72349,3.39328859 L117.72349,0 L114.416107,0 L114.416107,3.39328859 Z M130.115436,11.2966443 L123.221477,11.2966443 C123.328859,12.6067114 124.338255,13.3154362 126.077852,13.3154362 C127.387919,13.3154362 128.590604,12.9718121 129.6,12.3060403 L129.6,14.861745 C128.332886,15.5275168 127.022819,15.8496644 125.605369,15.8496644 C122.083221,15.8496644 120.021477,13.8308725 120.021477,10.3946309 C120.021477,6.97986577 122.126174,4.74630872 125.326174,4.74630872 C128.397315,4.74630872 130.158389,6.74362416 130.158389,10.2228188 C130.158389,10.3946309 130.158389,10.695302 130.136913,11.0604027 L130.115436,11.2966443 Z M123.26443,8.99865772 L127.130201,8.99865772 C127.022819,7.73154362 126.4,7.06577181 125.326174,7.06577181 C124.209396,7.06577181 123.436242,7.79597315 123.26443,8.99865772 Z M132.177181,15.2053691 C133.22953,15.6563758 134.238926,15.8496644 135.484564,15.8496644 C138.426846,15.8496644 139.951678,14.7114094 139.951678,12.4993289 C139.951678,11.0604027 139.307383,10.2872483 137.245638,9.34228188 C136.687248,9.08456376 136.257718,8.86979866 135.93557,8.71946309 C135.785235,8.65503356 135.656376,8.56912752 135.57047,8.48322148 C135.463087,8.37583893 135.398658,8.22550336 135.398658,8.07516779 C135.398658,7.62416107 135.914094,7.36644295 136.837584,7.36644295 C137.78255,7.36644295 138.577181,7.58120805 139.565101,8.05369128 L139.565101,5.43355705 C138.534228,5.00402685 137.653691,4.83221477 136.601342,4.83221477 C133.852349,4.83221477 132.177181,6.09932886 132.177181,8.16107383 C132.177181,9.66442953 132.821477,10.4375839 134.861745,11.3825503 L136.193289,12.0053691 C136.558389,12.1557047 136.730201,12.3704698 136.730201,12.6496644 C136.730201,13.0791946 136.257718,13.3154362 135.377181,13.3154362 C134.281879,13.3154362 133.358389,13.0577181 132.177181,12.4778523 L132.177181,15.2053691 Z" id="Stories" fill="#FFFFFF"></path>
            </g>
        </g>
    </g>
</svg>