<?xml version="1.0" encoding="UTF-8"?>
<svg width="40px" height="30px" viewBox="0 0 40 30" version="1.1" xmlns="http://www.w3.org/2000/svg" xmlns:xlink="http://www.w3.org/1999/xlink">
    <!-- Generator: Sketch 43.2 (39069) - http://www.bohemiancoding.com/sketch -->
    <title>Group</title>
    <desc>Created with Sketch.</desc>
    <defs>
        <polygon id="path-1" points="0.00753542731 0.025048951 39.4927978 0.025048951 39.4927978 17.9924476 0.00753542731 17.9924476"></polygon>
    </defs>
    <g id="Resources" stroke="none" stroke-width="1" fill="none" fill-rule="evenodd">
        <g id="Artboard-2" transform="translate(-10.000000, -10.000000)">
            <g id="Group" transform="translate(10.000000, 10.000000)">
                <g id="M+-Black-Logo">
                    <mask id="mask-2" fill="white">
                        <use xlink:href="#path-1"></use>
                    </mask>
                    <g id="Clip-2"></g>
                    <path d="M33.8663454,10.0856643 L29.9730413,12.3385594 L29.9730413,15.205972 L33.8663454,15.205972 L33.8663454,10.0856643 L33.8663454,10.0856643 Z M16.0581212,18 L20.2024806,18 L20.2024806,0.025048951 L13.9861299,0.0251748252 L10.1012403,11.251007 L6.21635076,0.0251748252 L0,0.025048951 L0,18 L4.14448502,18 L4.14448502,5.66509091 L8.28809091,17.9988671 L8.28783973,18 L11.9147665,18 L11.9143897,17.9988671 L16.0581212,5.66509091 L16.0581212,18 L16.0581212,18 Z M39.4927978,9.56655944 L39.4927978,5.66446154 L33.8663454,5.66446154 L33.8663454,0.025048951 L29.9730413,0.025048951 L29.9730413,5.66446154 L24.3465889,5.66446154 L24.3465889,9.56655944 L39.4927978,9.56655944 L39.4927978,9.56655944 Z" id="Fill-1" fill="#FFFFFF" mask="url(#mask-2)"></path>
                </g>
                <path d="M0,29.4201342 C0.797315436,29.8067114 1.65503356,30 2.57315436,30 C4.6147651,30 5.89530201,28.9973154 5.89530201,27.3785235 C5.89530201,26.7020134 5.66577181,26.1100671 5.23087248,25.6751678 C4.85637584,25.3006711 4.44563758,25.0348993 3.57583893,24.6362416 L2.85100671,24.285906 C2.30738255,24.0322148 2.06577181,23.7785235 2.06577181,23.4402685 C2.06577181,22.9328859 2.57315436,22.642953 3.45503356,22.642953 C4.2885906,22.642953 4.9409396,22.8604027 5.68993289,23.3919463 L5.68993289,21.5436242 C4.97718121,21.1812081 4.17986577,21 3.31006711,21 C1.31677852,21 0.0724832215,21.990604 0.0724832215,23.5610738 C0.0724832215,24.1409396 0.253691275,24.6604027 0.604026846,25.0348993 C0.954362416,25.4214765 1.32885906,25.6751678 2.33154362,26.1704698 C3.56375839,26.7865772 3.78120805,26.9919463 3.78120805,27.4751678 C3.78120805,27.9946309 3.29798658,28.2966443 2.45234899,28.2966443 C1.58255034,28.2966443 0.942281879,28.0791946 0,27.4389262 L0,29.4201342 Z M6.58389262,25.3731544 L7.53825503,25.3731544 L7.53825503,27.6201342 C7.53825503,28.6228188 7.59865772,28.8885906 7.86442953,29.2268456 C8.19060403,29.6255034 8.7704698,29.8308725 9.59194631,29.8308725 C9.91812081,29.8308725 10.2322148,29.7946309 10.5946309,29.7342282 L10.5946309,28.3328859 C10.4134228,28.3812081 10.3167785,28.4053691 10.1959732,28.4053691 C9.56778523,28.4053691 9.39865772,28.1879195 9.39865772,27.3785235 L9.39865772,25.3731544 L10.7033557,25.3731544 L10.7033557,23.9838926 L9.39865772,23.9838926 L9.39865772,22.3288591 L7.62281879,22.3288591 L7.62281879,23.9838926 L6.58389262,23.9838926 L6.58389262,25.3731544 Z M11.4040268,26.8832215 C11.4040268,24.9261745 12.5879195,23.7060403 14.4845638,23.7060403 C16.3449664,23.7060403 17.4805369,24.8778523 17.4805369,26.7744966 C17.4805369,28.7194631 16.2966443,29.9395973 14.4120805,29.9395973 C12.5516779,29.9395973 11.4040268,28.7677852 11.4040268,26.8832215 Z M13.3006711,26.8228188 C13.3006711,27.8496644 13.7234899,28.4416107 14.4483221,28.4416107 C15.1610738,28.4416107 15.5838926,27.8496644 15.5838926,26.8228188 C15.5838926,25.8080537 15.1731544,25.2040268 14.4604027,25.2040268 C13.7234899,25.2040268 13.3006711,25.7959732 13.3006711,26.8228188 Z M18.7610738,29.7825503 L20.6214765,29.7825503 L20.6214765,25.5060403 C21.0080537,25.3731544 21.3704698,25.3127517 21.7932886,25.3127517 C22.2040268,25.3127517 22.5543624,25.3731544 22.8926174,25.5060403 L22.8926174,23.9234899 C22.4697987,23.790604 22.1073826,23.7302013 21.5879195,23.7302013 C20.6818792,23.7302013 19.7033557,23.9234899 18.7610738,24.2979866 L18.7610738,29.7825503 Z M23.8590604,29.7825503 L25.7194631,29.7825503 L25.7194631,23.8630872 L23.8590604,23.8630872 L23.8590604,29.7825503 Z M23.8590604,22.9087248 L25.7194631,22.9087248 L25.7194631,21 L23.8590604,21 L23.8590604,22.9087248 Z M32.6899329,27.3543624 L28.8120805,27.3543624 C28.8724832,28.0912752 29.4402685,28.4899329 30.4187919,28.4899329 C31.1557047,28.4899329 31.8322148,28.2966443 32.4,27.9221477 L32.4,29.3597315 C31.6872483,29.7342282 30.9503356,29.9154362 30.1530201,29.9154362 C28.1718121,29.9154362 27.0120805,28.7798658 27.0120805,26.8469799 C27.0120805,24.9261745 28.1959732,23.6697987 29.9959732,23.6697987 C31.7234899,23.6697987 32.714094,24.7932886 32.714094,26.7503356 C32.714094,26.8469799 32.714094,27.0161074 32.7020134,27.2214765 L32.6899329,27.3543624 Z M28.8362416,26.061745 L31.0107383,26.061745 C30.9503356,25.3489933 30.6,24.9744966 29.9959732,24.9744966 C29.3677852,24.9744966 28.9328859,25.3852349 28.8362416,26.061745 Z M33.8496644,29.5530201 C34.4416107,29.8067114 35.009396,29.9154362 35.7100671,29.9154362 C37.3651007,29.9154362 38.2228188,29.2751678 38.2228188,28.0308725 C38.2228188,27.2214765 37.8604027,26.7865772 36.7006711,26.2550336 C36.3865772,26.1100671 36.1449664,25.9892617 35.9637584,25.904698 C35.8791946,25.8684564 35.8067114,25.8201342 35.7583893,25.7718121 C35.6979866,25.7114094 35.661745,25.6268456 35.661745,25.5422819 C35.661745,25.2885906 35.9516779,25.1436242 36.4711409,25.1436242 C37.0026846,25.1436242 37.4496644,25.2644295 38.0053691,25.5302013 L38.0053691,24.0563758 C37.4255034,23.8147651 36.9302013,23.7181208 36.338255,23.7181208 C34.7919463,23.7181208 33.8496644,24.4308725 33.8496644,25.590604 C33.8496644,26.4362416 34.2120805,26.8711409 35.3597315,27.4026846 L36.1087248,27.7530201 C36.314094,27.8375839 36.4107383,27.9583893 36.4107383,28.1154362 C36.4107383,28.357047 36.1449664,28.4899329 35.6496644,28.4899329 C35.033557,28.4899329 34.514094,28.3449664 33.8496644,28.0187919 L33.8496644,29.5530201 Z" id="Stories" fill="#FFFFFF"></path>
            </g>
        </g>
    </g>
</svg>