<?xml version="1.0" encoding="UTF-8"?>
<svg width="121px" height="18px" viewBox="0 0 121 18" version="1.1" xmlns="http://www.w3.org/2000/svg" xmlns:xlink="http://www.w3.org/1999/xlink">
    <!-- Generator: Sketch 43.2 (39069) - http://www.bohemiancoding.com/sketch -->
    <title>Group Copy</title>
    <desc>Created with Sketch.</desc>
    <defs>
        <polygon id="path-1" points="0.00753542731 0.025048951 39.4927978 0.025048951 39.4927978 17.9924476 0.00753542731 17.9924476"></polygon>
    </defs>
    <g id="Resources" stroke="none" stroke-width="1" fill="none" fill-rule="evenodd">
        <g id="Artboard-2" transform="translate(-73.000000, -10.000000)">
            <g id="Group-Copy" transform="translate(73.000000, 10.000000)">
                <g id="M+-Black-Logo">
                    <mask id="mask-2" fill="white">
                        <use xlink:href="#path-1"></use>
                    </mask>
                    <g id="Clip-2"></g>
                    <path d="M33.8663454,10.0856643 L29.9730413,12.3385594 L29.9730413,15.205972 L33.8663454,15.205972 L33.8663454,10.0856643 L33.8663454,10.0856643 Z M16.0581212,18 L20.2024806,18 L20.2024806,0.025048951 L13.9861299,0.0251748252 L10.1012403,11.251007 L6.21635076,0.0251748252 L0,0.025048951 L0,18 L4.14448502,18 L4.14448502,5.66509091 L8.28809091,17.9988671 L8.28783973,18 L11.9147665,18 L11.9143897,17.9988671 L16.0581212,5.66509091 L16.0581212,18 L16.0581212,18 Z M39.4927978,9.56655944 L39.4927978,5.66446154 L33.8663454,5.66446154 L33.8663454,0.025048951 L29.9730413,0.025048951 L29.9730413,5.66446154 L24.3465889,5.66446154 L24.3465889,9.56655944 L39.4927978,9.56655944 L39.4927978,9.56655944 Z" id="Fill-1" fill="#FFFFFF" mask="url(#mask-2)"></path>
                </g>
                <path d="M44,16.8402685 C45.5946309,17.6134228 47.3100671,18 49.1463087,18 C53.2295302,18 55.790604,15.9946309 55.790604,12.757047 C55.790604,11.4040268 55.3315436,10.2201342 54.461745,9.35033557 C53.7127517,8.60134228 52.8912752,8.06979866 51.1516779,7.27248322 L49.7020134,6.57181208 C48.6147651,6.06442953 48.1315436,5.55704698 48.1315436,4.88053691 C48.1315436,3.86577181 49.1463087,3.28590604 50.9100671,3.28590604 C52.5771812,3.28590604 53.8818792,3.72080537 55.3798658,4.78389262 L55.3798658,1.08724832 C53.9543624,0.362416107 52.3597315,0 50.6201342,0 C46.633557,0 44.1449664,1.98120805 44.1449664,5.12214765 C44.1449664,6.28187919 44.5073826,7.32080537 45.2080537,8.06979866 C45.9087248,8.84295302 46.6577181,9.35033557 48.6630872,10.3409396 C51.1275168,11.5731544 51.5624161,11.9838926 51.5624161,12.9503356 C51.5624161,13.9892617 50.5959732,14.5932886 48.904698,14.5932886 C47.1651007,14.5932886 45.8845638,14.1583893 44,12.8778523 L44,16.8402685 Z M57.1677852,8.74630872 L59.0765101,8.74630872 L59.0765101,13.2402685 C59.0765101,15.2456376 59.1973154,15.7771812 59.7288591,16.4536913 C60.3812081,17.2510067 61.5409396,17.661745 63.1838926,17.661745 C63.8362416,17.661745 64.4644295,17.5892617 65.1892617,17.4684564 L65.1892617,14.6657718 C64.8268456,14.7624161 64.633557,14.8107383 64.3919463,14.8107383 C63.1355705,14.8107383 62.7973154,14.3758389 62.7973154,12.757047 L62.7973154,8.74630872 L65.4067114,8.74630872 L65.4067114,5.96778523 L62.7973154,5.96778523 L62.7973154,2.65771812 L59.2456376,2.65771812 L59.2456376,5.96778523 L57.1677852,5.96778523 L57.1677852,8.74630872 Z M66.8080537,11.766443 C66.8080537,7.85234899 69.1758389,5.41208054 72.9691275,5.41208054 C76.6899329,5.41208054 78.9610738,7.7557047 78.9610738,11.5489933 C78.9610738,15.4389262 76.5932886,17.8791946 72.8241611,17.8791946 C69.1033557,17.8791946 66.8080537,15.5355705 66.8080537,11.766443 Z M70.6013423,11.6456376 C70.6013423,13.6993289 71.4469799,14.8832215 72.8966443,14.8832215 C74.3221477,14.8832215 75.1677852,13.6993289 75.1677852,11.6456376 C75.1677852,9.61610738 74.3463087,8.40805369 72.9208054,8.40805369 C71.4469799,8.40805369 70.6013423,9.59194631 70.6013423,11.6456376 Z M81.5221477,17.5651007 L85.242953,17.5651007 L85.242953,9.01208054 C86.0161074,8.74630872 86.7409396,8.62550336 87.5865772,8.62550336 C88.4080537,8.62550336 89.1087248,8.74630872 89.7852349,9.01208054 L89.7852349,5.84697987 C88.9395973,5.58120805 88.2147651,5.46040268 87.1758389,5.46040268 C85.3637584,5.46040268 83.4067114,5.84697987 81.5221477,6.59597315 L81.5221477,17.5651007 Z M91.7181208,17.5651007 L95.4389262,17.5651007 L95.4389262,5.7261745 L91.7181208,5.7261745 L91.7181208,17.5651007 Z M91.7181208,3.81744966 L95.4389262,3.81744966 L95.4389262,0 L91.7181208,0 L91.7181208,3.81744966 Z M109.379866,12.7087248 L101.624161,12.7087248 C101.744966,14.1825503 102.880537,14.9798658 104.837584,14.9798658 C106.311409,14.9798658 107.66443,14.5932886 108.8,13.8442953 L108.8,16.7194631 C107.374497,17.4684564 105.900671,17.8308725 104.30604,17.8308725 C100.343624,17.8308725 98.0241611,15.5597315 98.0241611,11.6939597 C98.0241611,7.85234899 100.391946,5.33959732 103.991946,5.33959732 C107.44698,5.33959732 109.428188,7.58657718 109.428188,11.5006711 C109.428188,11.6939597 109.428188,12.0322148 109.404027,12.442953 L109.379866,12.7087248 Z M101.672483,10.1234899 L106.021477,10.1234899 C105.900671,8.69798658 105.2,7.94899329 103.991946,7.94899329 C102.73557,7.94899329 101.865772,8.7704698 101.672483,10.1234899 Z M111.699329,17.1060403 C112.883221,17.6134228 114.018792,17.8308725 115.420134,17.8308725 C118.730201,17.8308725 120.445638,16.5503356 120.445638,14.061745 C120.445638,12.442953 119.720805,11.5731544 117.401342,10.5100671 C116.773154,10.2201342 116.289933,9.97852349 115.927517,9.80939597 C115.758389,9.73691275 115.613423,9.64026846 115.516779,9.54362416 C115.395973,9.42281879 115.32349,9.25369128 115.32349,9.08456376 C115.32349,8.57718121 115.903356,8.28724832 116.942282,8.28724832 C118.005369,8.28724832 118.899329,8.52885906 120.010738,9.06040268 L120.010738,6.11275168 C118.851007,5.6295302 117.860403,5.43624161 116.67651,5.43624161 C113.583893,5.43624161 111.699329,6.86174497 111.699329,9.18120805 C111.699329,10.8724832 112.424161,11.7422819 114.719463,12.8053691 L116.21745,13.5060403 C116.628188,13.6751678 116.821477,13.9167785 116.821477,14.2308725 C116.821477,14.714094 116.289933,14.9798658 115.299329,14.9798658 C114.067114,14.9798658 113.028188,14.6899329 111.699329,14.0375839 L111.699329,17.1060403 Z" id="Stories" fill="#FFFFFF"></path>
            </g>
        </g>
    </g>
</svg>