<svg viewBox="0 0 100 100" version="1.1" xmlns="http://www.w3.org/2000/svg" xmlns:xlink="http://www.w3.org/1999/xlink">
    <title id="title">Search</title>
    <g class="svg-icon" id="search" fill="#FFFFFF" fill-rule="nonzero">
        <path d="M26.9678392,80.0980703 L7.05484211,100 L1,93.9417908 L20.6384604,74.3142452 C13.5131302,66.4239229 9.17461506,55.9685859 9.17461506,44.4999345 C9.17461506,19.9232993 29.0979144,0 53.6745496,0 C78.2511848,0 98.1744841,19.9232993 98.1744841,44.4999345 C98.1744841,69.0765697 78.2511848,88.999869 53.6745496,88.999869 C43.6536409,88.999869 34.406363,85.6875617 26.9678392,80.0980703 L26.9678392,80.0980703 Z M53.6745496,80.434648 C73.5207438,80.434648 89.6092631,64.3461288 89.6092631,44.4999345 C89.6092631,24.6537403 73.5207438,8.56522103 53.6745496,8.56522103 C33.8283553,8.56522103 17.7398361,24.6537403 17.7398361,44.4999345 C17.7398361,64.3461288 33.8283553,80.434648 53.6745496,80.434648 L53.6745496,80.434648 Z M48.3967748,63.2796658 C48.3967748,66.359401 50.7557209,68.5217683 53.7044035,68.5217683 C56.6530862,68.5217683 59.0775586,66.359401 59.0775586,63.2796658 C59.0775586,60.1999306 56.6530862,58.0375633 53.7044035,58.0375633 C50.7557209,58.0375633 48.3967748,60.1999306 48.3967748,63.2796658 L48.3967748,63.2796658 Z M49.9038792,33.3996816 C49.5762478,29.7302098 51.2799311,27.5678426 54.1630875,27.5678426 C56.6530862,27.5678426 58.6844009,29.2715259 58.6844009,32.8754713 C58.6844009,35.36547 57.3738753,37.3967847 55.0804554,39.7557309 C51.4109837,43.5562552 49.5762478,46.1117801 49.5762478,52.0746717 C49.5762478,52.7299345 49.6417741,53.3196711 49.7728267,53.9094076 L57.4394016,53.9094076 C57.308349,53.3196711 57.2428227,52.7954608 57.2428227,52.2057243 C57.1772964,49.584673 57.767033,47.3567795 60.1259791,45.4565173 C65.3680816,41.2628353 68.3822905,37.8554687 68.3822905,32.4823137 C68.3822905,25.1433702 62.2228201,20.5565305 54.4251926,20.5565305 C47.5449331,20.5565305 40.9267787,24.0949497 40.0094108,33.3996816 L49.9038792,33.3996816 L49.9038792,33.3996816 Z"></path>
    </g>
</svg>
