<svg viewBox="0 0 100 100" version="1.1" xmlns="http://www.w3.org/2000/svg" xmlns:xlink="http://www.w3.org/1999/xlink">
    <title id="title">Search</title>
    <g class="svg-icon" id="search" fill="#FFFFFF" fill-rule="nonzero">
        <path d="M74.2762823,67.2407484 L99,91.9644661 L91.9289322,99.0355339 L67.2052145,74.3118162 C60.2464263,79.7554447 51.4843495,83 41.9644661,83 C19.3207914,83 0.964466094,64.6436747 0.964466094,42 C0.964466094,19.3563253 19.3207914,1 41.9644661,1 C64.6081408,1 82.9644661,19.3563253 82.9644661,42 C82.9644661,51.5198834 79.7199108,60.2819602 74.2762823,67.2407484 L74.2762823,67.2407484 Z M41.9644661,73 C59.0852933,73 72.9644661,59.1208272 72.9644661,42 C72.9644661,24.8791728 59.0852933,11 41.9644661,11 C24.8436389,11 10.9644661,24.8791728 10.9644661,42 C10.9644661,59.1208272 24.8436389,73 41.9644661,73 Z"></path>
    </g>
</svg>
