<svg viewBox="0 0 100 100" version="1.1" xmlns="http://www.w3.org/2000/svg" xmlns:xlink="http://www.w3.org/1999/xlink">
    <title id="title">Share</title>
    <g class="svg-icon" id="share" fill-rule="nonzero" fill="#FFFFFF">
        <path d="M64.9152893,66.8674747 C68.5818352,62.6594319 73.9803458,60 80,60 C91.045695,60 100,68.954305 100,80 C100,91.045695 91.045695,100 80,100 C68.954305,100 60,91.045695 60,80 C60,78.5628846 60.1515755,77.1611716 60.4396117,75.8099758 L35.0847107,63.1325253 C31.4181648,67.3405681 26.0196542,70 20,70 C8.954305,70 0,61.045695 0,50 C0,38.954305 8.954305,30 20,30 C26.0196542,30 31.4181648,32.6594319 35.0847107,36.8674747 L60.4396117,24.1900242 C60.1515755,22.8388284 60,21.4371154 60,20 C60,8.954305 68.954305,0 80,0 C91.045695,0 100,8.954305 100,20 C100,31.045695 91.045695,40 80,40 C73.9803458,40 68.5818352,37.3405681 64.9152893,33.1325253 L39.5603883,45.8099758 C39.8484245,47.1611716 40,48.5628846 40,50 C40,51.4371154 39.8484245,52.8388284 39.5603883,54.1900242 L64.9152893,66.8674747 Z M80,90 C85.5228475,90 90,85.5228475 90,80 C90,74.4771525 85.5228475,70 80,70 C74.4771525,70 70,74.4771525 70,80 C70,85.5228475 74.4771525,90 80,90 Z M80,30 C85.5228475,30 90,25.5228475 90,20 C90,14.4771525 85.5228475,10 80,10 C74.4771525,10 70,14.4771525 70,20 C70,25.5228475 74.4771525,30 80,30 Z M20,60 C25.5228475,60 30,55.5228475 30,50 C30,44.4771525 25.5228475,40 20,40 C14.4771525,40 10,44.4771525 10,50 C10,55.5228475 14.4771525,60 20,60 Z"></path>
    </g>
</svg>
