<?xml version="1.0" encoding="UTF-8"?>
<svg width="100px" height="100px" viewBox="0 0 100 100" version="1.1" xmlns="http://www.w3.org/2000/svg" xmlns:xlink="http://www.w3.org/1999/xlink">
    <!-- Generator: Sketch 43.2 (39069) - http://www.bohemiancoding.com/sketch -->
    <title>social-tw</title>
    <desc>Created with Sketch.</desc>
    <defs></defs>
    <g id="Resources" stroke="none" stroke-width="1" fill="none" fill-rule="evenodd" fill-opacity="0.9">
        <g id="social-tw" fill="#0032FF">
            <g id="Group" transform="translate(10.000000, 16.000000)">
                <path d="M70.5758056,10.8408824 C73.9660738,8.70143002 76.5674708,5.30901137 77.788343,1.26782361 C74.6140752,3.25375044 71.1064154,4.68995687 67.3639725,5.46748932 C64.3775313,2.09983286 60.1091742,0 55.3853378,0 C46.3227094,0 38.9786934,7.75056231 38.9786934,17.3087637 C38.9786934,18.6657312 39.1148676,19.9880316 39.3966074,21.2509028 C25.7604038,20.5278471 13.6690732,13.6439611 5.56905558,3.16460659 C4.15566121,5.72996843 3.34800728,8.70143002 3.34800728,11.870989 C3.34800728,17.8733414 6.24523097,23.1724479 10.6497623,26.2825777 C7.95914774,26.1934339 5.42818571,25.4059966 3.21183307,24.1183632 L3.21183307,24.331318 C3.21183307,32.7207445 8.86541058,39.7185366 16.3831661,41.3033161 C15.0026413,41.7094158 13.5563773,41.9124657 12.0537653,41.9124657 C10.9972413,41.9124657 9.96419557,41.8084645 8.96871515,41.6054147 C11.0535892,48.4793958 17.1156894,53.491261 24.3000528,53.6249768 C18.679345,58.2703617 11.6029817,61.033821 3.91618243,61.033821 C2.59200563,61.033821 1.28191583,60.9595345 0,60.7961041 C7.2641897,65.7039681 15.8901215,68.5714286 25.159359,68.5714286 C55.3524682,68.5714286 71.8530258,42.1947545 71.8530258,19.3194528 C71.8530258,18.5666825 71.8436344,17.8188647 71.8107648,17.0809517 C75.0179022,14.6394008 77.8071257,11.5887002 80,8.11704257 C77.0558197,9.49381977 73.8909432,10.4248777 70.5758056,10.8408824 Z" id="social-tw"></path>
            </g>
        </g>
    </g>
</svg>