<?xml version="1.0" encoding="UTF-8"?>
<svg width="100px" height="100px" viewBox="0 0 100 100" version="1.1" xmlns="http://www.w3.org/2000/svg" xmlns:xlink="http://www.w3.org/1999/xlink">
    <!-- Generator: Sketch 43.2 (39069) - http://www.bohemiancoding.com/sketch -->
    <title>social-li</title>
    <desc>Created with Sketch.</desc>
    <defs></defs>
    <g id="Resources" stroke="none" stroke-width="1" fill="none" fill-rule="evenodd">
        <g id="social-li">
            <g id="Group">
                <rect id="Rectangle-4" x="0" y="0" width="100" height="100"></rect>
                <path d="M30.9049479,38.7382812 L15.8658854,38.7382812 L15.8658854,83.9010417 L30.9049479,83.9010417 L30.9049479,38.7382812 Z M31.8619792,24.7929687 C31.8164062,20.3723958 28.6263021,17 23.4765625,17 C18.3723958,17 15,20.3723958 15,24.7929687 C15,29.1223958 18.2356771,32.5859375 23.2942708,32.5859375 L23.3854167,32.5859375 C28.6263021,32.5859375 31.9075521,29.1223958 31.8619792,24.7929687 L31.8619792,24.7929687 Z M85,58.015625 C85,44.1614583 77.6171875,37.6901042 67.7278646,37.6901042 C59.6158854,37.6901042 56.0611979,42.2018229 54.1015625,45.3007812 L54.1927083,45.3007812 L54.1927083,38.7382812 L39.1992188,38.7382812 C39.1992188,38.7382812 39.3815104,42.9765625 39.1992188,83.9010417 L54.1927083,83.9010417 L54.1927083,58.6992187 C54.1927083,57.3320312 54.3294271,56.0104167 54.6940104,55.0078125 C55.7877604,52.3190104 58.2486979,49.5390625 62.3958333,49.5390625 C67.8190104,49.5390625 70.0065104,53.6861979 70.0065104,59.7473958 L70.0065104,83.9010417 L85,83.9010417 L85,58.015625 Z" id="social-li" fill="#FFFFFF"></path>
            </g>
        </g>
    </g>
</svg>