<svg viewBox="0 0 100 100" version="1.1" xmlns="http://www.w3.org/2000/svg" xmlns:xlink="http://www.w3.org/1999/xlink">
    <title>Google+</title>
    <g class="svg-icon" id="social-gp" fill="#FFFFFF">
        <path d="M3.01856548,50.2256486 C2.42696903,34.6618709 16.0597259,20.2802446 31.6380852,20.0927669 C39.5788093,19.4157639 47.3028925,22.4997728 53.3115543,27.5293842 C50.8472635,30.2384376 48.3402694,32.9183279 45.6593376,35.4263635 C40.3714236,32.2121617 34.0013463,29.7624525 27.8187468,31.9382359 C17.8470138,34.7774822 11.8091887,46.5510847 15.4983342,56.3072184 C18.5531799,66.4955924 30.9465006,72.087637 40.6588894,67.8068951 C45.6885008,66.0060672 49.0026907,61.3659929 50.4587679,56.3790849 C44.6938272,56.2645151 38.929928,56.3363816 33.1660288,56.1780671 C33.1514472,52.7482658 33.1368656,49.3320047 33.1514472,45.9022034 C42.7628064,45.8886634 52.3897887,45.8595002 62.0157295,45.9459482 C62.6073259,54.3470344 61.3678897,63.339717 55.906038,70.0837082 C48.4267174,79.7106905 34.6064828,82.5353553 23.3661503,78.7597617 C11.4342332,74.8393937 2.75922126,62.8210286 3.01856548,50.2256486 L3.01856548,50.2256486 Z M80.7499642,37.2563546 L89.324988,37.2563546 C89.3395696,40.1237226 89.3676913,43.0056722 89.3822729,45.8740818 C92.2496409,45.9022034 95.132632,45.916785 98,45.9313666 L98,54.5199305 C95.132632,54.5345121 92.2496409,54.5490937 89.3822729,54.5636753 C89.3531097,57.4456249 89.3395696,60.3140345 89.324988,63.1959841 C86.4565785,63.1814025 83.5892105,63.1959841 80.7353826,63.1959841 C80.7072609,60.3140345 80.7072609,57.4456249 80.6780977,54.578257 C77.8107297,54.5490937 74.9277386,54.5345121 72.0603706,54.5199305 L72.0603706,45.9313666 C74.9277386,45.916785 77.7961481,45.9022034 80.6780977,45.8740818 C80.6926793,43.0056722 80.7218425,40.1237226 80.7499642,37.2563546 L80.7499642,37.2563546 Z"></path>
    </g>
</svg>
