<svg viewBox="0 0 100 100" version="1.1" xmlns="http://www.w3.org/2000/svg" xmlns:xlink="http://www.w3.org/1999/xlink">
    <title>WeChat</title>
    <g class="svg-icon" id="social-wc" fill="#FFFFFF">
        <path d="M30.4882812,30.5341797 C30.4882812,32.9072266 28.90625,34.4892578 26.4892578,34.4892578 C24.1162109,34.4892578 21.6992188,32.9072266 21.6992188,30.5341797 C21.6992188,28.1171875 24.1162109,26.5351562 26.4892578,26.5351562 C28.90625,26.5351562 30.4882812,28.1171875 30.4882812,30.5341797 L30.4882812,30.5341797 L30.4882812,30.5341797 Z M63.1396484,52.8144531 C63.1396484,54.4404297 61.5576172,56.0224609 59.140625,56.0224609 C57.5585938,56.0224609 55.9765625,54.4404297 55.9765625,52.8144531 C55.9765625,51.2324219 57.5585938,49.6503906 59.140625,49.6503906 C61.5576172,49.6503906 63.1396484,51.2324219 63.1396484,52.8144531 L63.1396484,52.8144531 L63.1396484,52.8144531 Z M52.7685547,30.5341797 C52.7685547,32.9072266 51.1865234,34.4892578 48.8134766,34.4892578 C46.3964844,34.4892578 44.0234375,32.9072266 44.0234375,30.5341797 C44.0234375,28.1171875 46.3964844,26.5351562 48.8134766,26.5351562 C51.1865234,26.5351562 52.7685547,28.1171875 52.7685547,30.5341797 L52.7685547,30.5341797 L52.7685547,30.5341797 Z M80.6738281,52.8144531 C80.6738281,54.4404297 79.0478516,56.0224609 76.6748047,56.0224609 C75.0927734,56.0224609 73.5107422,54.4404297 73.5107422,52.8144531 C73.5107422,51.2324219 75.0927734,49.6503906 76.6748047,49.6503906 C79.0478516,49.6503906 80.6738281,51.2324219 80.6738281,52.8144531 L80.6738281,52.8144531 L80.6738281,52.8144531 Z M68.984375,35.3681641 C66.2597656,22.5361328 52.5048828,13 36.8603516,13 C19.3261719,13 5,24.9091797 5,40.0703125 C5,48.8154297 9.79003906,56.0224609 17.7441406,61.6035156 L14.5800781,71.1835937 L25.6982422,65.6025391 C29.6972656,66.3935547 32.8613281,67.1845703 36.8603516,67.1845703 C37.8710938,67.1845703 38.8378906,67.140625 39.8486328,67.0527344 C39.1894531,64.9433594 38.8378906,62.7021484 38.8378906,60.3730469 C38.8378906,46.4863281 50.7910156,35.1923828 65.9082031,35.1923828 C66.9628906,35.1923828 67.9736328,35.2363281 68.984375,35.3681641 L68.984375,35.3681641 L68.984375,35.3681641 Z M95,60.0214844 C95,47.2773438 82.2558594,36.90625 67.9296875,36.90625 C52.7685547,36.90625 40.859375,47.2773438 40.859375,60.0214844 C40.859375,72.765625 52.7685547,83.1367188 67.9296875,83.1367188 C71.09375,83.1367188 74.3017578,82.3017578 77.5097656,81.5107422 L86.2548828,86.3007812 L83.8378906,78.3466797 C90.2539062,73.5566406 95,67.1845703 95,60.0214844 L95,60.0214844 L95,60.0214844 Z"></path>
    </g>
</svg>
