<svg viewBox="0 0 100 100" version="1.1" xmlns="http://www.w3.org/2000/svg" xmlns:xlink="http://www.w3.org/1999/xlink">
    <title>Twitter</title>
    <g class="svg-icon" id="social-tw" fill="#FFFFFF">
        <path d="M80.5758056,26.8408824 C83.9660738,24.70143 86.5674708,21.3090114 87.788343,17.2678236 C84.6140752,19.2537504 81.1064154,20.6899569 77.3639725,21.4674893 C74.3775313,18.0998329 70.1091742,16 65.3853378,16 C56.3227094,16 48.9786934,23.7505623 48.9786934,33.3087637 C48.9786934,34.6657312 49.1148676,35.9880316 49.3966074,37.2509028 C35.7604038,36.5278471 23.6690732,29.6439611 15.5690556,19.1646066 C14.1556612,21.7299684 13.3480073,24.70143 13.3480073,27.870989 C13.3480073,33.8733414 16.245231,39.1724479 20.6497623,42.2825777 C17.9591477,42.1934339 15.4281857,41.4059966 13.2118331,40.1183632 L13.2118331,40.331318 C13.2118331,48.7207445 18.8654106,55.7185366 26.3831661,57.3033161 C25.0026413,57.7094158 23.5563773,57.9124657 22.0537653,57.9124657 C20.9972413,57.9124657 19.9641956,57.8084645 18.9687151,57.6054147 C21.0535892,64.4793958 27.1156894,69.491261 34.3000528,69.6249768 C28.679345,74.2703617 21.6029817,77.033821 13.9161824,77.033821 C12.5920056,77.033821 11.2819158,76.9595345 10,76.7961041 C17.2641897,81.7039681 25.8901215,84.5714286 35.159359,84.5714286 C65.3524682,84.5714286 81.8530258,58.1947545 81.8530258,35.3194528 C81.8530258,34.5666825 81.8436344,33.8188647 81.8107648,33.0809517 C85.0179022,30.6394008 87.8071257,27.5887002 90,24.1170426 C87.0558197,25.4938198 83.8909432,26.4248777 80.5758056,26.8408824 Z"></path>
    </g>
</svg>
