<svg viewBox="0 0 100 100" version="1.1" xmlns="http://www.w3.org/2000/svg" xmlns:xlink="http://www.w3.org/1999/xlink">
    <title>GitHub</title>
    <g class="svg-icon" id="social-gh" fill="#FFFFFF">
        <path d="M50.4965469,13 C29.7914915,13 13,29.7891894 13,50.501151 C13,67.0693391 23.7438841,81.1236379 38.6453544,86.0823537 C40.521563,86.4276681 41.2052856,85.2697136 41.2052856,84.275208 C41.2052856,83.3842966 41.1730563,81.0269499 41.1546395,77.8984008 C30.7238405,80.1636637 28.5230363,72.8706222 28.5230363,72.8706222 C26.8171828,68.5380767 24.3585438,67.3847264 24.3585438,67.3847264 C20.9537432,65.059609 24.6163786,65.1056509 24.6163786,65.1056509 C28.3803063,65.370392 30.3601093,68.9708708 30.3601093,68.9708708 C33.7050554,74.7007889 39.138003,73.0455815 41.2743485,72.0856073 C41.6150588,69.6638018 42.5842414,68.0108966 43.6547162,67.0739433 C35.3280334,66.1277817 26.5731606,62.9094509 26.5731606,48.5397649 C26.5731606,44.4466374 28.0349919,41.0970871 30.4337764,38.4773013 C30.0470242,37.5288376 28.7601522,33.7142638 30.8021118,28.5529636 C30.8021118,28.5529636 33.9490776,27.5446453 41.1132018,32.3974646 C44.103625,31.5641057 47.3127475,31.1497284 50.501151,31.1336137 C53.6872525,31.1497284 56.8940729,31.5641057 59.8891003,32.3974646 C67.0486203,27.5446453 70.1909819,28.5529636 70.1909819,28.5529636 C72.2375457,33.7142638 70.9506737,37.5288376 70.5662236,38.4773013 C72.9696123,41.0970871 74.4199331,44.4466374 74.4199331,48.5397649 C74.4199331,62.9462844 65.6512477,66.1162712 57.2992418,67.0440161 C58.6436662,68.2019706 59.8430584,70.4902545 59.8430584,73.987139 C59.8430584,79.001105 59.7970165,83.0458885 59.7970165,84.275208 C59.7970165,85.278922 60.4738328,86.4460849 62.3753645,86.0800516 C77.2653243,81.1098253 88,67.064735 88,50.501151 C88,29.7891894 71.2085085,13 50.4965469,13"></path>
    </g>
</svg>
