<?xml version="1.0" encoding="UTF-8"?>
<svg width="100px" height="100px" viewBox="0 0 100 100" version="1.1" xmlns="http://www.w3.org/2000/svg" xmlns:xlink="http://www.w3.org/1999/xlink">
    <!-- Generator: Sketch 43.2 (39069) - http://www.bohemiancoding.com/sketch -->
    <title>social-ig</title>
    <desc>Created with Sketch.</desc>
    <defs></defs>
    <g id="Resources" stroke="none" stroke-width="1" fill="none" fill-rule="evenodd" fill-opacity="0.9">
        <g id="social-ig" fill-rule="nonzero" fill="#0032FF">
            <path d="M86.7559762,65.5771762 C86.6245722,77.2186515 77.2193563,86.6238674 65.577881,86.7552714 L50,87 L34.4228238,86.7565047 C22.781171,86.6251117 13.3756456,77.2200558 13.2436714,65.5784095 L13,50 L13.2434952,34.4222952 C13.375842,22.7808058 22.7811516,13.3759657 34.4226476,13.2442 L50,13 L65.5771762,13.2434952 C77.2184946,13.3752719 86.6234947,22.780272 86.7552714,34.4215905 L87,50 L86.7559762,65.5771762 Z M79.000987,50.1256602 L78.7557839,34.5121426 C78.6732191,27.2182612 72.7805055,21.3255476 65.4522496,21.2425197 L49.8970817,20.9995197 L50.1253974,20.9990171 L34.5131908,21.2436876 C27.2189836,21.326248 21.3259028,27.2190346 21.2425198,34.5472176 L20.9995197,50.1029183 L20.9990215,49.8748824 L21.2431574,65.4877243 C21.3258468,72.7818826 27.2189473,78.674689 34.5477504,78.7574802 L50.1029183,79.0004803 L49.8743355,79.000987 L65.4875861,78.755781 C72.7814228,78.6734513 78.6741561,72.780718 78.7569573,65.4518865 L79.0001868,49.9232128 L79.000987,50.1256602 Z M57.2709815,67.5542427 C50.1709383,70.4951576 41.9984461,68.8695183 36.5643387,63.4353605 C31.1302313,58.0012027 29.5046678,49.8286954 32.4456485,42.7286795 C35.3866293,35.6286635 42.314976,30.9993716 50,30.9994428 C60.4887787,31.0112889 68.9886322,39.5112212 69.000381,50 C69.000381,57.685024 64.3710248,64.6133278 57.2709815,67.5542427 Z M49.9999258,38.9994428 C45.5506065,38.9994016 41.5393729,41.6795751 39.8366635,45.7901983 C38.1339541,49.9008215 39.0750899,54.632374 42.2212192,57.7785325 C45.3673485,60.9246909 50.0988922,61.8658706 54.2095312,60.1631993 C58.3201702,58.4605281 61.000381,54.4493193 61.000381,50 C60.9935784,43.9314311 56.0684946,39.0063017 49.9999258,38.9994428 Z M73.4029785,30.6645329 C73.4033348,32.3963694 72.3603289,33.9578597 70.7603887,34.6207694 C69.1604486,35.2836791 67.3187162,34.9174343 66.0941229,33.6928409 C64.8695295,32.4682476 64.5032847,30.6265152 65.1661944,29.0265751 C65.8291041,27.4266349 67.3905944,26.3836289 69.1224309,26.3839853 C71.4863106,26.3844716 73.4024922,28.3006532 73.4029785,30.6645329 Z" id="ig"></path>
        </g>
    </g>
</svg>