<svg viewBox="0 0 100 100" version="1.1" xmlns="http://www.w3.org/2000/svg" xmlns:xlink="http://www.w3.org/1999/xlink">
    <title>WhatsApp</title>
    <g class="svg-icon" id="social-wa" fill="#FFFFFF">
        <path d="M66.4946336,57.3538094 C65.5988923,56.9055091 61.1949599,54.7387812 60.3738208,54.4395132 C59.5528535,54.140589 58.9556926,53.9913848 58.3585318,54.8878136 C57.7613709,55.7844144 56.0446624,57.8022818 55.5221036,58.4001302 C54.9997168,58.9978067 54.4771581,59.0729245 53.5814168,58.6242804 C52.6856755,58.17598 49.799398,57.2302175 46.3780136,54.1782339 C43.7151987,51.8029982 41.917356,48.8697935 41.3949692,47.9730209 C40.8724105,47.0762483 41.3391035,46.5915063 41.7875758,46.1449248 C42.190668,45.7433797 42.683489,45.0986041 43.1312737,44.5755297 C43.5792303,44.0526273 43.7284345,43.6787571 44.027015,43.0812524 C44.3255954,42.4832321 44.1763912,41.9603296 43.952241,41.5120292 C43.7284345,41.0637289 41.936952,36.6544677 41.1905869,34.8607505 C40.4634739,33.1143042 39.7250159,33.3508309 39.175126,33.3231558 C38.6532549,33.2971998 38.0554064,33.2916992 37.4584174,33.2916992 C36.8612566,33.2916992 35.8907413,33.5158494 35.0696021,34.4124502 C34.2486349,35.3092228 31.9345936,37.4764663 31.9345936,41.8852118 C31.9345936,46.2944729 35.1442042,50.5536703 35.5921609,51.1515187 C36.0401174,51.749539 41.9084175,60.7970245 50.8943648,64.677023 C53.031355,65.6000956 54.6999331,66.1511888 56.0008293,66.563907 C58.1465861,67.2458117 60.0993055,67.1495509 61.6427446,66.9188688 C63.3637505,66.6618868 66.9424183,64.7521409 67.6889553,62.6598432 C68.4353204,60.56703 68.4353204,58.7736565 68.2113421,58.4001302 C67.9875358,58.0264319 67.3903748,57.8022818 66.4946336,57.3538094 M50.1505782,79.6699892 L50.1385456,79.6699892 C44.7917728,79.6679265 39.547621,78.2314057 34.9728256,75.5166787 L33.8847346,74.8708718 L22.607436,77.829173 L25.6174774,66.8337811 L24.9091009,65.7063262 C21.9263907,60.9623869 20.3509793,55.479302 20.3533859,49.8490755 C20.3599178,33.4206199 33.7267638,20.0548054 50.1624388,20.0548054 C58.1211457,20.0575558 65.6023302,23.1609357 71.2282593,28.7932249 C76.8538446,34.4251704 79.950177,41.9115116 79.9470829,49.8731407 C79.940379,66.3029714 66.573705,79.6699892 50.1505782,79.6699892 M75.509803,24.5135721 C68.7414642,17.7373263 59.7403902,14.0039536 50.1502344,14 C30.3904669,14 14.3083784,30.0810572 14.3004713,49.8468409 C14.2978928,56.1653322 15.948594,62.3323846 19.0858372,67.7692299 L14,86.3460207 L33.0042919,81.3609136 C38.2405366,84.2169377 44.1359959,85.7223881 50.1359672,85.724279 L50.1505782,85.724279 L50.15075,85.724279 C69.9084548,85.724279 85.9919184,69.6416748 85.9999974,49.8755472 C86.0036072,40.2965646 82.2781417,31.2896461 75.509803,24.5135721"></path>
    </g>
</svg>
