<svg viewBox="0 0 242 50" version="1.1" xmlns="http://www.w3.org/2000/svg" xmlns:xlink="http://www.w3.org/1999/xlink">
    <title>M+ Stories</title>
    <g class="svg-icon" id="stories-logo-line" fill="#FFFFFF">
        <path d="M32.1162424,43 L40.4049613,43 L40.4049613,7.0500979 L27.9722597,7.05034965 L20.2024806,29.502014 L12.4327015,7.05034965 L0,7.0500979 L0,43 L8.28897004,43 L8.28897004,18.3301818 L16.5761818,42.9977343 L16.5756795,43 L23.829533,43 L23.8287794,42.9977343 L32.1162424,18.3301818 L32.1162424,43 L32.1162424,43 Z M88,40.6805369 C91.1892617,42.2268456 94.6201342,43 98.2926174,43 C106.45906,43 111.581208,38.9892617 111.581208,32.514094 C111.581208,29.8080537 110.663087,27.4402685 108.92349,25.7006711 C107.425503,24.2026846 105.78255,23.1395973 102.303356,21.5449664 L99.4040268,20.1436242 C97.2295302,19.1288591 96.2630872,18.114094 96.2630872,16.7610738 C96.2630872,14.7315436 98.2926174,13.5718121 101.820134,13.5718121 C105.154362,13.5718121 107.763758,14.4416107 110.759732,16.5677852 L110.759732,9.17449664 C107.908725,7.72483221 104.719463,7 101.240268,7 C93.2671141,7 88.2899329,10.9624161 88.2899329,17.2442953 C88.2899329,19.5637584 89.0147651,21.6416107 90.4161074,23.1395973 C91.8174497,24.685906 93.3154362,25.7006711 97.3261745,27.6818792 C102.255034,30.1463087 103.124832,30.9677852 103.124832,32.9006711 C103.124832,34.9785235 101.191946,36.1865772 97.809396,36.1865772 C94.3302013,36.1865772 91.7691275,35.3167785 88,32.7557047 L88,40.6805369 Z M67.7326908,27.1713287 L59.9460825,31.6771189 L59.9460825,37.4119441 L67.7326908,37.4119441 L67.7326908,27.1713287 L67.7326908,27.1713287 Z M78.9855956,26.1331189 L78.9855956,18.3289231 L67.7326908,18.3289231 L67.7326908,7.0500979 L59.9460825,7.0500979 L59.9460825,18.3289231 L48.6931778,18.3289231 L48.6931778,26.1331189 L78.9855956,26.1331189 L78.9855956,26.1331189 Z M114.33557,24.4926174 L118.15302,24.4926174 L118.15302,33.4805369 C118.15302,37.4912752 118.394631,38.5543624 119.457718,39.9073826 C120.762416,41.5020134 123.081879,42.3234899 126.367785,42.3234899 C127.672483,42.3234899 128.928859,42.1785235 130.378523,41.9369128 L130.378523,36.3315436 C129.653691,36.5248322 129.267114,36.6214765 128.783893,36.6214765 C126.271141,36.6214765 125.594631,35.7516779 125.594631,32.514094 L125.594631,24.4926174 L130.813423,24.4926174 L130.813423,18.9355705 L125.594631,18.9355705 L125.594631,12.3154362 L118.491275,12.3154362 L118.491275,18.9355705 L114.33557,18.9355705 L114.33557,24.4926174 Z M133.616107,30.5328859 C133.616107,22.704698 138.351678,17.8241611 145.938255,17.8241611 C153.379866,17.8241611 157.922148,22.5114094 157.922148,30.0979866 C157.922148,37.8778523 153.186577,42.7583893 145.648322,42.7583893 C138.206711,42.7583893 133.616107,38.0711409 133.616107,30.5328859 Z M141.202685,30.2912752 C141.202685,34.3986577 142.89396,36.766443 145.793289,36.766443 C148.644295,36.766443 150.33557,34.3986577 150.33557,30.2912752 C150.33557,26.2322148 148.692617,23.8161074 145.841611,23.8161074 C142.89396,23.8161074 141.202685,26.1838926 141.202685,30.2912752 Z M163.044295,42.1302013 L170.485906,42.1302013 L170.485906,25.0241611 C172.032215,24.4926174 173.481879,24.2510067 175.173154,24.2510067 C176.816107,24.2510067 178.21745,24.4926174 179.57047,25.0241611 L179.57047,18.6939597 C177.879195,18.1624161 176.42953,17.9208054 174.351678,17.9208054 C170.727517,17.9208054 166.813423,18.6939597 163.044295,20.1919463 L163.044295,42.1302013 Z M183.436242,42.1302013 L190.877852,42.1302013 L190.877852,18.452349 L183.436242,18.452349 L183.436242,42.1302013 Z M183.436242,14.6348993 L190.877852,14.6348993 L190.877852,7 L183.436242,7 L183.436242,14.6348993 Z M218.759732,32.4174497 L203.248322,32.4174497 C203.489933,35.3651007 205.761074,36.9597315 209.675168,36.9597315 C212.622819,36.9597315 215.328859,36.1865772 217.6,34.6885906 L217.6,40.4389262 C214.748993,41.9369128 211.801342,42.661745 208.612081,42.661745 C200.687248,42.661745 196.048322,38.1194631 196.048322,30.3879195 C196.048322,22.704698 200.783893,17.6791946 207.983893,17.6791946 C214.89396,17.6791946 218.856376,22.1731544 218.856376,30.0013423 C218.856376,30.3879195 218.856376,31.0644295 218.808054,31.885906 L218.759732,32.4174497 Z M203.344966,27.2469799 L212.042953,27.2469799 C211.801342,24.3959732 210.4,22.8979866 207.983893,22.8979866 C205.471141,22.8979866 203.731544,24.5409396 203.344966,27.2469799 Z M223.398658,41.2120805 C225.766443,42.2268456 228.037584,42.661745 230.840268,42.661745 C237.460403,42.661745 240.891275,40.1006711 240.891275,35.1234899 C240.891275,31.885906 239.441611,30.1463087 234.802685,28.0201342 C233.546309,27.4402685 232.579866,26.957047 231.855034,26.6187919 C231.516779,26.4738255 231.226846,26.2805369 231.033557,26.0872483 C230.791946,25.8456376 230.64698,25.5073826 230.64698,25.1691275 C230.64698,24.1543624 231.806711,23.5744966 233.884564,23.5744966 C236.010738,23.5744966 237.798658,24.0577181 240.021477,25.1208054 L240.021477,19.2255034 C237.702013,18.2590604 235.720805,17.8724832 233.35302,17.8724832 C227.167785,17.8724832 223.398658,20.7234899 223.398658,25.3624161 C223.398658,28.7449664 224.848322,30.4845638 229.438926,32.6107383 L232.434899,34.0120805 C233.256376,34.3503356 233.642953,34.833557 233.642953,35.461745 C233.642953,36.4281879 232.579866,36.9597315 230.598658,36.9597315 C228.134228,36.9597315 226.056376,36.3798658 223.398658,35.0751678 L223.398658,41.2120805 Z"></path>
    </g>
</svg>
