<svg width="144px" height="40px" viewBox="0 0 144 40" version="1.1" xmlns="http://www.w3.org/2000/svg" xmlns:xlink="http://www.w3.org/1999/xlink">
    <title id="title">West Kowloon</title>
    <g class="svg-icon" id="wk-logo" fill="#FFFFFF">
        <path d="M42.4818659,30.9306122 L41.2920117,30.9306122 L41.2920117,30.1687464 L41.2920117,29.4334694 L42.4818659,29.4334694 L42.4818659,30.9306122 L42.4818659,30.9306122 Z M39.875102,32.2941108 C39.8670554,32.3931195 39.8584257,32.4858309 39.8494461,32.5758601 C39.7542857,33.5299125 39.6023324,34.2650729 39.2601749,34.7537026 C38.9661808,35.1681633 38.6185423,35.4621574 38.0571429,35.7696793 L38.0571429,32.2941108 L39.875102,32.2941108 L39.875102,32.2941108 Z M46.4653061,29.4334694 C47.0134111,29.4334694 47.5346939,29.4601749 48.0159767,29.5137026 L48.0159767,27.9897376 C47.601516,28.0432653 47.0802332,28.0699708 46.451895,28.0699708 L37.4957434,28.0699708 C36.8674052,28.0699708 36.3327114,28.0432653 35.9183673,27.9897376 L35.9183673,29.5137026 C36.372828,29.4601749 36.934344,29.4334694 37.4690379,29.4334694 L39.9286297,29.4334694 L39.9286297,30.0885131 L39.9286297,30.9306122 L38.123965,30.9306122 C37.4556268,30.9306122 36.974344,30.9172012 36.56,30.8637901 C36.6134111,31.411895 36.6402332,31.9064723 36.6402332,32.4811662 L36.6402332,37.8398834 C36.6402332,37.9815743 36.6393003,38.1102041 36.6376676,38.2298542 C36.6298542,38.7868222 36.6040816,39.1350437 36.56,39.5643149 C36.9606997,39.5125364 37.4233236,39.4984257 38.0571429,39.4974927 L38.0571429,35.8766181 C38.4180758,36.1306122 38.7388921,36.4380175 39.046414,36.8390671 C39.9286297,36.2241399 40.3028571,35.8230904 40.6504956,35.1547522 C40.9855394,34.5093878 41.1132362,33.7345773 41.2153936,32.5741108 C41.223207,32.4846647 41.2309038,32.3917201 41.2387172,32.2941108 L42.4818659,32.2941108 L42.4818659,34.8873469 C42.4818659,35.4354519 42.548688,35.676035 42.7892711,35.8365015 C42.9897376,35.9968513 43.2972595,36.0369679 44.1527697,36.0369679 C44.3683965,36.0369679 44.5439067,36.0369679 44.7503207,36.0306706 L45.5019242,34.728863 C44.9914869,34.7587172 44.5485714,34.7671137 44.1794752,34.7671137 C43.8452478,34.7671137 43.7918367,34.7402915 43.7918367,34.5398251 L43.7918367,32.2941108 L45.8772012,32.2941108 L45.8772012,38.1874052 L39.1913703,38.1874052 L38.4352187,39.4973761 L45.8083965,39.4973761 C46.477551,39.4973761 46.9191837,39.5107872 47.374344,39.5643149 C47.3208163,39.1899708 47.2941108,38.6018659 47.2941108,37.8531778 L47.2941108,32.4811662 C47.2941108,31.8129446 47.3074052,31.398484 47.3609329,30.8637901 C46.9064723,30.9172012 46.4653061,30.9306122 45.7969679,30.9306122 L43.7918367,30.9306122 L43.7918367,29.4334694 L46.4653061,29.4334694 L46.4653061,29.4334694 Z M56.5179009,28.9121866 C56.5311953,28.3372595 56.544723,28.0699708 56.5980175,27.6823324 L54.9138192,27.6823324 C54.9673469,28.0966764 54.9806414,28.4843149 54.9806414,29.0725364 C54.9806414,29.5137026 54.9673469,29.9547522 54.9405248,30.3825073 L54.9405248,30.5028571 L53.1091545,30.5028571 C52.3070554,30.5028571 51.8393003,30.4761516 51.4248397,30.4226239 L51.4248397,32.0267055 C51.8527114,31.9732945 52.3205831,31.9465889 53.1091545,31.9465889 L54.833586,31.9465889 C54.8201749,32.0668222 54.8201749,32.0668222 54.7934694,32.2808163 C54.646414,33.563965 54.3255977,34.6734694 53.8177259,35.636035 C53.1492711,36.9193003 52.2001166,37.8416327 50.7296793,38.6303207 C51.197551,39.0179592 51.518484,39.3921866 51.8258892,39.9268805 C52.6011662,39.4590087 53.0958601,39.0713703 53.7374927,38.4297376 C54.8602915,37.3069388 55.5287464,36.0637901 55.983207,34.2591254 C56.170379,33.5506706 56.24,33.1516035 56.3574344,31.9465889 C56.4748688,30.7415743 56.5044898,29.473586 56.5179009,28.9121866 L56.5179009,28.9121866 Z M62.8541108,38.951137 C63.0946939,38.4431487 63.2150437,37.6811662 63.3219825,35.9434402 C62.747172,35.8230904 62.3327114,35.6627405 61.9316618,35.3953353 C61.9183673,36.5449563 61.8248397,37.4405831 61.6777843,37.9084548 C61.5841399,38.2158601 61.4104956,38.2826822 60.7955685,38.2826822 C60.2741691,38.2826822 60.2341691,38.2559767 60.2341691,37.935277 L60.2341691,37.9218659 L60.260758,31.9598834 C60.260758,31.2514286 60.2741691,30.9840233 60.3276968,30.436035 C59.846414,30.4761516 59.3785423,30.5028571 58.6834985,30.5028571 L57.568863,30.5028571 L56.735277,31.9465889 L58.7369096,31.9465889 L58.696793,38.5099708 C58.696793,39.4457143 59.0577259,39.6730029 60.6083965,39.6730029 C62.0654227,39.6730029 62.5868222,39.499242 62.8541108,38.951137 L62.8541108,38.951137 Z M72.0214577,34.9542857 C71.5134694,34.4194752 71.1525364,33.938309 70.7514869,33.2832653 C70.2703207,32.4945773 70.0430321,31.9867055 69.7356268,30.9974344 L74.1602332,30.9974344 C73.8527114,32.0401166 73.6523615,32.548105 73.2377843,33.2698542 C72.890379,33.8981924 72.4893294,34.4462974 72.0214577,34.9542857 L72.0214577,34.9542857 Z M78.3439067,38.2960933 C76.1919534,37.8148105 74.6013994,37.0930612 73.1177843,35.9434402 C73.7594169,35.2081633 74.227172,34.5398251 74.6950437,33.6843149 C75.2030321,32.7485714 75.2965598,32.5346939 75.7376093,30.9974344 L76.4461808,30.9974344 C77.1415743,30.9974344 77.5952187,31.0242566 78.0767347,31.0776676 L78.0767347,29.5671137 C77.5822741,29.6339359 77.1146356,29.6606414 76.3926531,29.6606414 L72.7558017,29.6606414 L72.7558017,29.2865306 C72.7558017,28.5914869 72.7825073,28.0834985 72.836035,27.6825656 L71.1651312,27.6825656 C71.2186589,28.0702041 71.2452478,28.618309 71.2452478,29.2865306 L71.2452478,29.6606414 L67.5968513,29.6606414 C66.901691,29.6606414 66.4338192,29.6339359 65.9258309,29.5671137 L65.9258309,31.0776676 C66.4072303,31.0242566 66.9283965,30.9974344 67.5567347,30.9974344 L68.1850729,30.9974344 C68.5861224,32.2272886 68.8802332,32.9223324 69.388105,33.8045481 C69.8692711,34.6334694 70.0565598,34.8873469 70.9787755,35.9434402 C69.6420991,37.0529446 68.104723,37.7748105 65.7119534,38.4297376 C66.0995918,38.9110204 66.3268805,39.2852478 66.5674636,39.8600583 C67.8374344,39.4323032 68.612828,39.124898 69.4148105,38.7105539 C70.3906706,38.2025656 71.3262974,37.5876385 72.0482799,36.9727114 C73.478484,38.2158601 75.1629155,39.1114869 77.4214577,39.8600583 C77.7163848,39.1381924 77.9029738,38.8174927 78.3439067,38.2960933 L78.3439067,38.2960933 Z M88.1993003,37.7479883 L88.1993003,35.0344023 C89.9636152,33.7779592 91.0598251,32.6951603 92.797551,30.4761516 C92.9443732,30.2889796 92.971312,30.2622741 93.0786006,30.1285131 L91.6476968,29.1393586 C91.4471137,29.5938192 91.0728863,30.1820408 90.4991254,30.9172012 C89.7504373,31.8797668 89.0949271,32.5346939 88.1993003,33.2031487 L88.1993003,29.2837318 C88.1993003,28.5885714 88.2261224,28.0806997 88.2796501,27.6796501 L86.6085131,27.6796501 C86.6622741,28.0672886 86.6892128,28.6153936 86.6892128,29.2837318 L86.6892128,34.2055977 C85.926414,34.6467638 85.378309,34.900758 84.3766764,35.2349854 L84.3766764,31.037551 C84.9246647,29.7944023 85.0307872,29.5404082 85.3387755,28.7116035 C85.4587755,28.3774927 85.5123032,28.2437318 85.6325364,27.9630321 L84.068688,27.5218659 C83.9217493,28.4309038 83.4272886,29.6606414 82.7182507,30.8369679 C82.1433236,31.7727114 81.7023907,32.3342274 80.8475802,33.2031487 C81.2478134,33.9250146 81.2885131,33.9918367 81.5554519,34.7805248 C82.0768513,34.2190087 82.6248397,33.523965 82.932828,33.0426822 C82.9058892,34.0318367 82.9058892,34.0853644 82.9058892,34.5398251 L82.9058892,37.7730612 C82.9058892,38.4012828 82.8790671,38.9225656 82.8127114,39.4973761 L84.4558601,39.4973761 C84.4032653,38.9359767 84.3766764,38.3344606 84.3766764,37.7863557 L84.3766764,35.3819242 C84.7509038,35.7696793 85.003965,36.1439067 85.2580758,36.6787172 C85.9532362,36.3579009 86.1678134,36.2508455 86.6892128,35.9701458 L86.6892128,38.1223324 C86.6892128,39.3387755 87.0902624,39.5660641 89.2417493,39.5660641 C91.4342857,39.5660641 92.1561516,39.4190087 92.5701458,38.9244315 C92.8908455,38.5099708 93.0786006,37.6277551 93.1858892,35.9701458 C92.7170845,35.8766181 92.2634402,35.7161516 91.7420408,35.448863 C91.6746356,37.0663557 91.595102,37.5876385 91.3678134,37.8950437 C91.1940525,38.1089213 90.7252478,38.1891545 89.5229155,38.1891545 C88.4265889,38.1891545 88.1993003,38.1089213 88.1993003,37.7479883 L88.1993003,37.7479883 Z M106.15137,29.3132362 C106.953819,29.3132362 107.354985,29.3265306 107.782974,29.3800583 L107.782974,27.9897376 C107.328047,28.0432653 106.914169,28.0699708 106.111837,28.0699708 L98.2120117,28.0699708 C97.3829738,28.0699708 97.0226239,28.0566764 96.5805248,28.0031487 C96.6215743,28.4309038 96.6342857,28.8453644 96.6342857,29.5002915 L96.6342857,37.988688 C96.6342857,38.6437318 96.6215743,38.9110204 96.5539359,39.5793586 C97.0880466,39.5308455 97.5332945,39.5046064 98.0511953,39.5000583 L98.0511953,29.3132362 L106.15137,29.3132362 L106.15137,29.3132362 Z M100.030087,35.0344023 L101.486647,35.0344023 L101.486647,36.2776676 L100.030087,36.2776676 L100.030087,35.0344023 Z M98.7602332,34.9542857 L98.7602332,36.371312 C98.7602332,36.9193003 98.7461224,37.1331778 98.7193003,37.4672886 C99.0668222,37.427172 99.4016327,37.4138776 99.962449,37.4138776 L101.540408,37.4138776 C102.074519,37.4138776 102.436035,37.427172 102.769446,37.4672886 C102.744023,37.1731778 102.729913,36.9325948 102.729913,36.371312 L102.729913,35.0211079 C102.729913,34.4462974 102.744023,34.2190087 102.769446,33.8847813 C102.489563,33.9116035 102.316035,33.9250146 101.794636,33.9250146 L99.7082216,33.9250146 C99.2406997,33.9250146 98.9876385,33.9116035 98.7193003,33.8714869 C98.7461224,34.1923032 98.7602332,34.4328863 98.7602332,34.9542857 L98.7602332,34.9542857 Z M104.721749,35.0344023 L106.219009,35.0344023 L106.219009,36.2776676 L104.721749,36.2776676 L104.721749,35.0344023 Z M103.478484,34.9542857 L103.478484,36.371312 C103.478484,36.9058892 103.464606,37.1598834 103.43895,37.4672886 C103.786472,37.427172 104.119883,37.4138776 104.682099,37.4138776 L106.299475,37.4138776 C106.833586,37.4138776 107.195335,37.427172 107.542624,37.4672886 C107.501808,37.1731778 107.489096,36.8523615 107.489096,36.371312 L107.489096,35.0211079 C107.489096,34.5398251 107.501808,34.1923032 107.542624,33.8714869 C107.261574,33.9116035 107.007347,33.9250146 106.552536,33.9250146 L104.427872,33.9250146 C103.986939,33.9250146 103.732711,33.9116035 103.43895,33.8847813 C103.464606,34.2458309 103.478484,34.4595918 103.478484,34.9542857 L103.478484,34.9542857 Z M101.500758,31.1846064 L104.53516,31.1846064 L104.53516,32.1203499 L101.500758,32.1203499 L101.500758,31.1846064 Z M101.540408,33.2431487 L104.52105,33.2431487 C105.149738,33.2431487 105.483149,33.2565598 105.925248,33.2832653 C105.884431,32.9758601 105.871487,32.7084548 105.871487,32.2138776 L105.871487,31.0242566 C105.871487,30.5963848 105.884431,30.3156851 105.925248,30.021691 C105.630321,30.0482799 105.309621,30.061691 104.734461,30.061691 L101.312886,30.061691 C100.778776,30.061691 100.510671,30.0482799 100.123499,30.021691 C100.163149,30.3290962 100.177026,30.623207 100.177026,31.037551 L100.177026,32.2272886 C100.177026,32.6684548 100.163149,32.962449 100.123499,33.2832653 C100.551487,33.2565598 100.911837,33.2431487 101.540408,33.2431487 L101.540408,33.2431487 Z M107.983557,39.5793586 L107.983557,38.162449 C107.662857,38.2292711 107.274519,38.2426822 106.512886,38.2426822 L99.1542857,38.2426822 L98.4291545,39.499242 L106.512886,39.499242 C107.141574,39.499242 107.595219,39.5258309 107.983557,39.5793586 L107.983557,39.5793586 Z"></path>
        <path d="M11.9883382,16.9097376 C13.6676385,16.9097376 15.2069971,16.6765015 17.1195335,16.1400583 L17.1195335,5.22460641 L13.5043732,5.22460641 L13.5043732,13.7610496 C12.8979592,13.9476385 12.4548105,14.0176093 11.9183673,14.0176093 C10.7521866,14.0176093 10.2623907,13.5278134 10.2623907,12.338309 L10.2623907,5.22460641 L6.64723032,5.22460641 L6.64723032,12.4549271 C6.64723032,13.0613411 6.69387755,13.3412245 6.78717201,13.6910787 C6.22740525,13.9243149 5.76093294,14.0176093 5.20116618,14.0176093 C4.10495627,14.0176093 3.61516035,13.5278134 3.61516035,12.3849563 L3.61516035,5.22460641 L0,5.22460641 L0,12.5482216 C0,14.1808746 0.279883382,15.067172 1.02623907,15.7902041 C1.79591837,16.5365598 2.98542274,16.9097376 4.57142857,16.9097376 C5.9941691,16.9097376 7.16034985,16.6765015 8.60641399,16.0934111 C9.65597668,16.6998251 10.5189504,16.9097376 11.9883382,16.9097376 L11.9883382,16.9097376 Z M26.8288047,9.56279883 L22.6305539,9.56279883 C22.8171429,8.28 23.656793,7.48699708 24.869621,7.48699708 C26.0358017,7.48699708 26.7121866,8.21002915 26.8288047,9.56279883 L26.8288047,9.56279883 Z M30.0941108,11.7085714 C30.1174344,11.3353936 30.1174344,11.0321866 30.1174344,10.8455977 C30.1174344,7.09049563 28.204898,4.94472303 24.869621,4.94472303 C21.3944023,4.94472303 19.108688,7.34705539 19.108688,11.0321866 C19.108688,14.7406414 21.3477551,16.9097376 25.172828,16.9097376 C26.7121866,16.9097376 28.1349271,16.5598834 29.5110204,15.8368513 L29.5110204,13.0613411 C28.4148105,13.8076968 27.108688,14.2041983 25.6859475,14.2041983 C23.7967347,14.2041983 22.7005248,13.4111953 22.5839067,11.9651312 L30.0707872,11.9651312 L30.0941108,11.7085714 L30.0941108,11.7085714 Z M35.5492711,8.88641399 C35.4326531,8.76979592 35.3626822,8.60653061 35.3626822,8.44326531 C35.3626822,7.95346939 35.922449,7.67358601 36.9253644,7.67358601 C37.9516035,7.67358601 38.8145773,7.90682216 39.8874636,8.44326531 L39.8874636,5.59778426 C38.76793,5.13131195 37.8116618,4.94472303 36.6688047,4.94472303 C33.6833819,4.94472303 31.8641399,6.32081633 31.8641399,8.55988338 C31.8641399,10.1925364 32.5638484,11.0321866 34.7795918,12.0584257 L36.225656,12.7348105 C36.5988338,12.8980758 36.7854227,13.131312 36.7854227,13.434519 C36.7854227,13.9243149 36.2723032,14.1808746 35.316035,14.1808746 C34.1498542,14.1808746 33.1469388,13.9009913 31.8641399,13.24793 L31.8641399,16.2100292 C33.0069971,16.6998251 34.103207,16.9097376 35.4559767,16.9097376 C38.651312,16.9097376 40.3072886,15.673586 40.3072886,13.2712536 C40.3072886,11.6852478 39.6075802,10.8455977 37.3685131,9.8193586 C36.7620991,9.53947522 36.2956268,9.30623907 35.9457726,9.14297376 C35.7825073,9.07300292 35.6425656,8.97970845 35.5492711,8.88641399 L35.5492711,8.88641399 Z M49.5376093,8.55953353 L51.3285131,5.45749271 L46.2674052,5.45749271 L46.2674052,0 L42.4190087,0 L42.4190087,16.6531778 L46.2674052,16.6531778 L46.2674052,8.55953353 L49.5376093,8.55953353 L49.5376093,8.55953353 Z M52.2861808,16.6531778 L56.1345773,16.6531778 L56.1345773,0 L52.2861808,0 L52.2861808,16.6531778 Z M61.4076968,8.20699708 L66.5085714,0.00128279883 L61.9026239,0.00128279883 L57.0976093,8.3238484 L62.4527114,16.6531778 L67.3830904,16.6531778 L61.4076968,8.20699708 L61.4076968,8.20699708 Z M75.3947522,10.9155685 C75.3947522,12.9213994 74.5784257,14.0875802 73.2022157,14.0875802 C71.8029155,14.0875802 70.9865889,12.9213994 70.9865889,10.9155685 C70.9865889,8.90973761 71.8029155,7.74355685 73.225656,7.74355685 C74.6016327,7.74355685 75.3947522,8.93306122 75.3947522,10.9155685 L75.3947522,10.9155685 Z M79.056793,10.8455977 C79.056793,7.18379009 76.8644898,4.92139942 73.2724198,4.92139942 C69.6106122,4.92139942 67.324898,7.27708455 67.324898,11.0555102 C67.324898,14.6939942 69.5406414,16.9563848 73.1322449,16.9563848 C76.7711953,16.9563848 79.056793,14.6006997 79.056793,10.8455977 L79.056793,10.8455977 Z M92.911137,16.9097376 C94.5904373,16.9097376 96.1297959,16.6765015 98.0423324,16.1400583 L98.0423324,5.22460641 L94.427172,5.22460641 L94.427172,13.7610496 C93.8208746,13.9476385 93.3776093,14.0176093 92.8411662,14.0176093 C91.6749854,14.0176093 91.1850729,13.5278134 91.1850729,12.338309 L91.1850729,5.22460641 L87.5699125,5.22460641 L87.5699125,12.4549271 C87.5699125,13.0613411 87.6166764,13.3412245 87.7099708,13.6910787 C87.1502041,13.9243149 86.6837318,14.0176093 86.1240816,14.0176093 C85.0277551,14.0176093 84.5378426,13.5278134 84.5378426,12.3849563 L84.5378426,5.22460641 L80.9226822,5.22460641 L80.9226822,12.5482216 C80.9226822,14.1808746 81.2026822,15.067172 81.9490379,15.7902041 C82.7187172,16.5365598 83.9083382,16.9097376 85.4942274,16.9097376 C86.9169679,16.9097376 88.0831487,16.6765015 89.5292128,16.0934111 C90.5787755,16.6998251 91.4417493,16.9097376 92.911137,16.9097376 L92.911137,16.9097376 Z M100.640466,16.6531778 L104.255627,16.6531778 L104.255627,0.000116618076 L100.640466,0.000116618076 L100.640466,16.6531778 Z M114.401399,10.9155685 C114.401399,12.9213994 113.585073,14.0875802 112.209096,14.0875802 C110.809679,14.0875802 109.993353,12.9213994 109.993353,10.9155685 C109.993353,8.90973761 110.809679,7.74355685 112.23242,7.74355685 C113.608513,7.74355685 114.401399,8.93306122 114.401399,10.9155685 L114.401399,10.9155685 Z M118.062974,10.8455977 C118.062974,7.18379009 115.870787,4.92139942 112.279067,4.92139942 C108.617259,4.92139942 106.331545,7.27708455 106.331545,11.0555102 C106.331545,14.6939942 108.547289,16.9563848 112.139009,16.9563848 C115.777609,16.9563848 118.062974,14.6006997 118.062974,10.8455977 L118.062974,10.8455977 Z M127.582507,10.9155685 C127.582507,12.9213994 126.766181,14.0875802 125.390087,14.0875802 C123.990671,14.0875802 123.174344,12.9213994 123.174344,10.9155685 C123.174344,8.90973761 123.990671,7.74355685 125.413411,7.74355685 C126.789504,7.74355685 127.582507,8.93306122 127.582507,10.9155685 L127.582507,10.9155685 Z M131.244315,10.8455977 C131.244315,7.18379009 129.051895,4.92139942 125.460058,4.92139942 C121.798251,4.92139942 119.512536,7.27708455 119.512536,11.0555102 C119.512536,14.6939942 121.72828,16.9563848 125.320117,16.9563848 C128.958601,16.9563848 131.244315,14.6006997 131.244315,10.8455977 L131.244315,10.8455977 Z M143.878717,16.6531778 L143.878717,9.60944606 C143.878717,7.8135277 143.645481,6.97387755 142.899125,6.20419825 C142.106122,5.38787172 140.776676,4.96804665 138.934111,4.96804665 C137.161516,4.96804665 135.412245,5.22460641 133.289796,5.78437318 L133.289796,16.6531778 L136.904956,16.6531778 L136.904956,8.11673469 C137.627988,7.95346939 138.071137,7.90682216 138.560933,7.90682216 C139.820408,7.90682216 140.28688,8.39661808 140.28688,9.74938776 L140.28688,16.6531778 L143.878717,16.6531778 L143.878717,16.6531778 Z"></path>
    </g>
</svg>
