<?xml version="1.0" encoding="UTF-8"?>
<svg width="100px" height="100px" viewBox="0 0 100 100" version="1.1" xmlns="http://www.w3.org/2000/svg" xmlns:xlink="http://www.w3.org/1999/xlink">
    <!-- Generator: Sketch 43.2 (39069) - http://www.bohemiancoding.com/sketch -->
    <title>link</title>
    <desc>Created with Sketch.</desc>
    <defs></defs>
    <g id="Resources" stroke="none" stroke-width="1" fill="none" fill-rule="evenodd">
        <g id="link">
            <rect id="Rectangle-4" x="0" y="0" width="100" height="100"></rect>
            <path d="M54,53.5 L46,53.5 L46,54.0086716 C46,62.2881537 39.2752683,69 31.0001055,69 L18.9998945,69 C10.7156815,69 4,62.2938355 4,54.0086716 L4,45.9913284 C4,37.7118463 10.7247317,31 18.9998945,31 L31.0001055,31 C39.2843185,31 46,37.7061645 46,45.9913284 L46,46.5 L54,46.5 L54,45.9913284 C54,37.7118463 60.7247317,31 68.9998945,31 L81.0001055,31 C89.2843185,31 96,37.7061645 96,45.9913284 L96,54.0086716 C96,62.2881537 89.2752683,69 81.0001055,69 L68.9998945,69 C60.7156815,69 54,62.2938355 54,54.0086716 L54,53.5 Z M39,46.5 L39,45.9913284 C39,41.5754261 35.421594,38 31.0001055,38 L18.9998945,38 C14.586052,38 11,41.5825111 11,45.9913284 L11,54.0086716 C11,58.4245739 14.578406,62 18.9998945,62 L31.0001055,62 C35.413948,62 39,58.4174889 39,54.0086716 L39,53.5 L33.4972017,53.5 C31.5657505,53.5 30,51.9290634 30,50 C30,48.0670034 31.5680474,46.5 33.4972017,46.5 L39,46.5 Z M61,53.5 L61,54.0086716 C61,58.4245739 64.578406,62 68.9998945,62 L81.0001055,62 C85.413948,62 89,58.4174889 89,54.0086716 L89,45.9913284 C89,41.5754261 85.421594,38 81.0001055,38 L68.9998945,38 C64.586052,38 61,41.5825111 61,45.9913284 L61,46.5 L66.5027983,46.5 C68.4342495,46.5 70,48.0709366 70,50 C70,51.9329966 68.4319526,53.5 66.5027983,53.5 L61,53.5 Z" fill="#000000" fill-rule="nonzero" transform="translate(50.000000, 50.000000) rotate(45.000000) translate(-50.000000, -50.000000) "></path>
        </g>
    </g>
</svg>