<?xml version="1.0" encoding="UTF-8"?>
<svg width="315px" height="143px" viewBox="0 0 315 143" version="1.1" xmlns="http://www.w3.org/2000/svg" xmlns:xlink="http://www.w3.org/1999/xlink">
    <!-- Generator: Sketch 43.2 (39069) - http://www.bohemiancoding.com/sketch -->
    <title>logo</title>
    <desc>Created with Sketch.</desc>
    <defs></defs>
    <g id="Page-1" stroke="none" stroke-width="1" fill="none" fill-rule="evenodd">
        <path d="M269.657,80.125 L238.657,98.023 L238.657,120.803 L269.657,120.803 L269.657,80.125 Z M127.861,143 L160.86,143 L160.86,0.199 L111.363,0.2 L80.43,89.383 L49.497,0.2 L0,0.199 L0,143 L33,143 L33,45.006 L65.993,142.991 L65.991,143 L94.87,143 L94.867,142.991 L127.861,45.006 L127.861,143 Z M314.457,76.001 L314.457,45.001 L269.657,45.001 L269.657,0.199 L238.657,0.199 L238.657,45.001 L193.857,45.001 L193.857,76.001 L314.457,76.001 L314.457,76.001 Z" id="logo" fill="#FFFFFF"></path>
    </g>
</svg>