<?xml version="1.0" encoding="UTF-8"?>
<svg width="100px" height="100px" viewBox="0 0 100 100" version="1.1" xmlns="http://www.w3.org/2000/svg" xmlns:xlink="http://www.w3.org/1999/xlink">
    <!-- Generator: Sketch 43.2 (39069) - http://www.bohemiancoding.com/sketch -->
    <title>social-wb</title>
    <desc>Created with Sketch.</desc>
    <defs></defs>
    <g id="Resources" stroke="none" stroke-width="1" fill="none" fill-rule="evenodd">
        <g id="social-wb" fill="#FFFFFF">
            <path d="M72.6055757,49.0972097 C77.7716153,50.6991787 83.521318,54.5737084 83.5088997,61.4038088 C83.5088997,72.692102 67.228424,86.9111292 42.7518277,86.9111292 C24.0870261,86.9111292 5,77.8581416 5,62.980941 C5,55.1946266 9.93009066,46.1913124 18.4118335,37.7095695 C29.7498002,26.3716028 42.9753583,21.2055632 47.9427041,26.1853274 C50.1283362,28.3833779 50.3394484,32.170979 48.9361732,36.703682 C48.1910714,38.9762427 51.0721319,37.7219879 51.0721319,37.7219879 C60.2368848,33.8847133 68.2343115,33.6611827 71.1526271,37.8337532 C72.717341,40.0690587 72.5683207,43.1860682 71.1277904,46.7998122 C70.4696171,48.4638731 71.3389026,48.7122404 72.6055757,49.0972097 Z M42.8139196,81.5712325 C57.7035385,80.1058655 69.0042501,70.9783677 68.0231993,61.1926966 C67.0669852,51.4194438 54.2015597,44.6762719 39.2995224,46.1540573 C24.4099035,47.6318427 13.1091919,56.7469221 14.0778244,66.5325933 C15.0464568,76.305846 27.9118823,83.0490179 42.8139196,81.5712325 Z M88.8612147,21.8637365 C94.7723562,28.4082146 96.3743252,37.3370186 93.8409789,45.1481698 L93.8409789,45.1605881 C93.2573157,46.961251 91.3200509,47.9547201 89.5069697,47.371057 C87.6938885,46.7873939 86.7004193,44.850129 87.2840825,43.0370478 C89.0847453,37.4736206 87.9422558,31.1278364 83.7448486,26.4709497 C79.5474414,21.8140631 73.3506776,20.038237 67.6258116,21.2552367 C65.763057,21.6526244 63.9375574,20.4728797 63.5401697,18.6101251 C63.1427821,16.7597888 64.3225267,14.9218709 66.1852814,14.5244832 C74.2323815,12.8107489 82.9500733,15.3068401 88.8612147,21.8637365 Z M79.7833904,30.059857 C82.6644509,33.2513767 83.4343895,37.5978042 82.2049714,41.4102421 C81.6958185,42.974956 80.0317576,43.8194048 78.4670437,43.3226702 C76.9023298,42.8135173 76.057881,41.1370381 76.5546156,39.5847425 C77.1631155,37.7219879 76.7781462,35.5984476 75.374871,34.0337336 C73.9715958,32.4814381 71.8853106,31.8853566 69.9728825,32.2951626 C68.3833319,32.6428768 66.8061996,31.624571 66.4584854,30.0226019 C66.1231895,28.4206329 67.1414954,26.8310823 68.7434644,26.4957865 C72.6552492,25.6513377 76.9023298,26.8683374 79.7833904,30.059857 Z M44.2917049,53.6795861 C51.6309583,55.5795959 55.3813043,62.4966248 52.3760602,69.2273783 C49.3335609,76.0947338 40.5910323,79.7705697 33.1648504,77.3738254 C26.0118725,75.0640096 22.9693733,67.9855419 26.1112195,61.614921 C29.1909738,55.3684837 37.2008189,51.8292498 44.2917049,53.6795861 Z M38.8772981,69.9476435 C40.2929916,67.6254093 39.5478897,64.9802977 37.2132372,63.9744102 C34.9034215,63.0057778 31.923014,63.9992469 30.4949021,66.2345525 C29.0543718,68.4822765 29.7373819,71.1522248 32.0223609,72.1953674 C34.3445951,73.2509284 37.4367678,72.2450409 38.8772981,69.9476435 Z M43.6335316,63.8626449 C44.1302662,62.9561043 43.8073887,61.9502168 42.9132665,61.6273393 C42.0315626,61.2796251 40.9263282,61.7018495 40.4047569,62.571135 C39.8956039,63.4404205 40.168808,64.446308 41.0629302,64.8064406 C41.9570524,65.1789915 43.1119603,64.7567672 43.6335316,63.8626449 Z"></path>
        </g>
    </g>
</svg>